<svg xmlns="http://www.w3.org/2000/svg" width="1200" height="700">
<rect width="100%" height="100%" fill="white"/>
<text x="600" y="30" text-anchor="middle" font-family="Arial, sans-serif" font-size="24" font-weight="bold" fill="black">Cumulative Modified Files Over Time - platform</text>
<g transform="translate(80,130)">
<line x1="0" y1="440" x2="1040" y2="440" stroke="#333" stroke-width="2"/>
<line x1="0" y1="0" x2="0" y2="440" stroke="#333" stroke-width="2"/>
<text x="-10" y="445" text-anchor="end" font-family="Arial, sans-serif" font-size="12" fill="#666">0</text>
<line x1="-5" y1="440" x2="0" y2="440" stroke="#ccc" stroke-width="1"/>
<text x="-10" y="357" text-anchor="end" font-family="Arial, sans-serif" font-size="12" fill="#666">112</text>
<line x1="-5" y1="352" x2="0" y2="352" stroke="#ccc" stroke-width="1"/>
<text x="-10" y="269" text-anchor="end" font-family="Arial, sans-serif" font-size="12" fill="#666">224</text>
<line x1="-5" y1="264" x2="0" y2="264" stroke="#ccc" stroke-width="1"/>
<text x="-10" y="181" text-anchor="end" font-family="Arial, sans-serif" font-size="12" fill="#666">336</text>
<line x1="-5" y1="176" x2="0" y2="176" stroke="#ccc" stroke-width="1"/>
<text x="-10" y="93" text-anchor="end" font-family="Arial, sans-serif" font-size="12" fill="#666">448</text>
<line x1="-5" y1="88" x2="0" y2="88" stroke="#ccc" stroke-width="1"/>
<text x="-10" y="5" text-anchor="end" font-family="Arial, sans-serif" font-size="12" fill="#666">560</text>
<line x1="-5" y1="0" x2="0" y2="0" stroke="#ccc" stroke-width="1"/>
<text x="0" y="460" text-anchor="middle" font-family="Arial, sans-serif" font-size="10" fill="#666">0</text>
<text x="99" y="460" text-anchor="middle" font-family="Arial, sans-serif" font-size="10" fill="#666">10</text>
<text x="198" y="460" text-anchor="middle" font-family="Arial, sans-serif" font-size="10" fill="#666">20</text>
<text x="297" y="460" text-anchor="middle" font-family="Arial, sans-serif" font-size="10" fill="#666">30</text>
<text x="396" y="460" text-anchor="middle" font-family="Arial, sans-serif" font-size="10" fill="#666">40</text>
<text x="495" y="460" text-anchor="middle" font-family="Arial, sans-serif" font-size="10" fill="#666">50</text>
<text x="594" y="460" text-anchor="middle" font-family="Arial, sans-serif" font-size="10" fill="#666">60</text>
<text x="693" y="460" text-anchor="middle" font-family="Arial, sans-serif" font-size="10" fill="#666">70</text>
<text x="792" y="460" text-anchor="middle" font-family="Arial, sans-serif" font-size="10" fill="#666">80</text>
<text x="891" y="460" text-anchor="middle" font-family="Arial, sans-serif" font-size="10" fill="#666">90</text>
<text x="990" y="460" text-anchor="middle" font-family="Arial, sans-serif" font-size="10" fill="#666">100</text>
<text x="1040" y="460" text-anchor="middle" font-family="Arial, sans-serif" font-size="10" fill="#666">105</text>
<polyline points="0,404 9,404 19,400 29,399 39,398 49,397 59,396 69,396 79,394 89,393 99,389 108,387 118,386 128,385 138,383 148,382 158,380 168,372 178,362 188,361 198,360 208,359 217,358 227,357 237,342 247,330 257,328 267,327 277,324 287,323 297,321 307,308 316,308 326,304 336,303 346,297 356,286 366,279 376,268 386,260 396,258 406,247 416,246 425,246 435,244 445,243 455,240 465,231 475,229 485,228 495,222 505,220 515,219 524,218 534,216 544,210 554,207 564,206 574,203 584,202 594,199 604,198 614,197 624,196 633,195 643,193 653,192 663,191 673,183 683,171 693,169 703,169 713,161 723,160 732,154 742,151 752,151 762,150 772,148 782,145 792,143 802,142 812,129 822,61 832,60 841,59 851,57 861,55 871,52 881,51 891,49 901,47 911,45 921,44 931,37 940,35 950,29 960,27 970,26 980,22 990,12 1000,11 1010,11 1020,7 1030,5 1040,0 " fill="none" stroke="#FF6B6B" stroke-width="3"/>
<circle cx="0" cy="404" r="4" fill="#FF6B6B"/>
<circle cx="49" cy="397" r="4" fill="#FF6B6B"/>
<circle cx="99" cy="389" r="4" fill="#FF6B6B"/>
<circle cx="148" cy="382" r="4" fill="#FF6B6B"/>
<circle cx="198" cy="360" r="4" fill="#FF6B6B"/>
<circle cx="247" cy="330" r="4" fill="#FF6B6B"/>
<circle cx="297" cy="321" r="4" fill="#FF6B6B"/>
<circle cx="346" cy="297" r="4" fill="#FF6B6B"/>
<circle cx="396" cy="258" r="4" fill="#FF6B6B"/>
<circle cx="445" cy="243" r="4" fill="#FF6B6B"/>
<circle cx="495" cy="222" r="4" fill="#FF6B6B"/>
<circle cx="544" cy="210" r="4" fill="#FF6B6B"/>
<circle cx="594" cy="199" r="4" fill="#FF6B6B"/>
<circle cx="643" cy="193" r="4" fill="#FF6B6B"/>
<circle cx="693" cy="169" r="4" fill="#FF6B6B"/>
<circle cx="742" cy="151" r="4" fill="#FF6B6B"/>
<circle cx="792" cy="143" r="4" fill="#FF6B6B"/>
<circle cx="841" cy="59" r="4" fill="#FF6B6B"/>
<circle cx="891" cy="49" r="4" fill="#FF6B6B"/>
<circle cx="940" cy="35" r="4" fill="#FF6B6B"/>
<circle cx="990" cy="12" r="4" fill="#FF6B6B"/>
<circle cx="1040" cy="0" r="4" fill="#FF6B6B"/>
</g>
</svg>