<svg xmlns="http://www.w3.org/2000/svg" width="1200" height="700">
<rect width="100%" height="100%" fill="white"/>
<text x="600" y="30" text-anchor="middle" font-family="Arial, sans-serif" font-size="24" font-weight="bold" fill="black">Code Churn Over Time - platform</text>
<g transform="translate(80,130)">
<line x1="0" y1="440" x2="1040" y2="440" stroke="#333" stroke-width="2"/>
<line x1="0" y1="0" x2="0" y2="440" stroke="#333" stroke-width="2"/>
<text x="-10" y="445" text-anchor="end" font-family="Arial, sans-serif" font-size="12" fill="#666">0.0%</text>
<line x1="-5" y1="440" x2="0" y2="440" stroke="#ccc" stroke-width="1"/>
<text x="-10" y="357" text-anchor="end" font-family="Arial, sans-serif" font-size="12" fill="#666">20.0%</text>
<line x1="-5" y1="352" x2="0" y2="352" stroke="#ccc" stroke-width="1"/>
<text x="-10" y="269" text-anchor="end" font-family="Arial, sans-serif" font-size="12" fill="#666">40.0%</text>
<line x1="-5" y1="264" x2="0" y2="264" stroke="#ccc" stroke-width="1"/>
<text x="-10" y="181" text-anchor="end" font-family="Arial, sans-serif" font-size="12" fill="#666">60.0%</text>
<line x1="-5" y1="176" x2="0" y2="176" stroke="#ccc" stroke-width="1"/>
<text x="-10" y="93" text-anchor="end" font-family="Arial, sans-serif" font-size="12" fill="#666">80.0%</text>
<line x1="-5" y1="88" x2="0" y2="88" stroke="#ccc" stroke-width="1"/>
<text x="-10" y="5" text-anchor="end" font-family="Arial, sans-serif" font-size="12" fill="#666">100.0%</text>
<line x1="-5" y1="0" x2="0" y2="0" stroke="#ccc" stroke-width="1"/>
<text x="0" y="460" text-anchor="middle" font-family="Arial, sans-serif" font-size="10" fill="#666">0.0h</text>
<text x="104" y="460" text-anchor="middle" font-family="Arial, sans-serif" font-size="10" fill="#666">1.4d</text>
<text x="208" y="460" text-anchor="middle" font-family="Arial, sans-serif" font-size="10" fill="#666">2.8d</text>
<text x="312" y="460" text-anchor="middle" font-family="Arial, sans-serif" font-size="10" fill="#666">4.3d</text>
<text x="416" y="460" text-anchor="middle" font-family="Arial, sans-serif" font-size="10" fill="#666">5.7d</text>
<text x="520" y="460" text-anchor="middle" font-family="Arial, sans-serif" font-size="10" fill="#666">7.1d</text>
<text x="624" y="460" text-anchor="middle" font-family="Arial, sans-serif" font-size="10" fill="#666">8.5d</text>
<text x="728" y="460" text-anchor="middle" font-family="Arial, sans-serif" font-size="10" fill="#666">9.9d</text>
<text x="832" y="460" text-anchor="middle" font-family="Arial, sans-serif" font-size="10" fill="#666">11.3d</text>
<text x="936" y="460" text-anchor="middle" font-family="Arial, sans-serif" font-size="10" fill="#666">12.8d</text>
<text x="1040" y="460" text-anchor="middle" font-family="Arial, sans-serif" font-size="10" fill="#666">14.2d</text>
<polyline points="0,440 2,440 17,304 18,227 18,220 18,367 19,74 19,440 20,256 20,440 83,220 83,308 84,440 84,248 86,373 86,440 87,398 88,193 98,302 98,220 101,363 101,283 107,147 111,343 285,295 291,333 291,220 294,409 294,429 294,0 296,206 382,196 383,440 384,278 384,440 389,378 395,332 432,416 453,236 455,367 457,264 510,372 511,440 511,233 511,305 528,220 538,306 538,290 538,220 539,266 542,269 581,414 582,184 582,147 583,440 583,440 585,294 585,380 585,421 585,440 585,176 586,110 587,315 587,275 588,147 588,118 592,220 595,192 598,395 599,220 599,440 600,231 601,384 603,220 604,253 604,421 604,440 604,440 604,221 605,229 609,252 610,283 610,273 650,72 650,189 718,220 719,252 720,6 722,385 724,220 741,440 800,436 800,440 801,274 803,255 803,358 805,311 964,440 966,440 967,269 969,388 969,204 1036,367 1037,440 1039,220 1040,425 " fill="none" stroke="#9B59B6" stroke-width="3"/>
<circle cx="0" cy="440" r="4" fill="#9B59B6"/>
<circle cx="18" cy="367" r="4" fill="#9B59B6"/>
<circle cx="83" cy="220" r="4" fill="#9B59B6"/>
<circle cx="86" cy="440" r="4" fill="#9B59B6"/>
<circle cx="101" cy="363" r="4" fill="#9B59B6"/>
<circle cx="291" cy="333" r="4" fill="#9B59B6"/>
<circle cx="296" cy="206" r="4" fill="#9B59B6"/>
<circle cx="389" cy="378" r="4" fill="#9B59B6"/>
<circle cx="457" cy="264" r="4" fill="#9B59B6"/>
<circle cx="528" cy="220" r="4" fill="#9B59B6"/>
<circle cx="542" cy="269" r="4" fill="#9B59B6"/>
<circle cx="583" cy="440" r="4" fill="#9B59B6"/>
<circle cx="585" cy="176" r="4" fill="#9B59B6"/>
<circle cx="588" cy="118" r="4" fill="#9B59B6"/>
<circle cx="599" cy="440" r="4" fill="#9B59B6"/>
<circle cx="604" cy="421" r="4" fill="#9B59B6"/>
<circle cx="609" cy="252" r="4" fill="#9B59B6"/>
<circle cx="718" cy="220" r="4" fill="#9B59B6"/>
<circle cx="741" cy="440" r="4" fill="#9B59B6"/>
<circle cx="803" cy="358" r="4" fill="#9B59B6"/>
<circle cx="969" cy="388" r="4" fill="#9B59B6"/>
<circle cx="1040" cy="425" r="4" fill="#9B59B6"/>
</g>
</svg>