<svg xmlns="http://www.w3.org/2000/svg" width="1200" height="700">
<rect width="100%" height="100%" fill="white"/>
<text x="600" y="30" text-anchor="middle" font-family="Arial, sans-serif" font-size="24" font-weight="bold" fill="black">Cumulative Lines Over Time - platform</text>
<g transform="translate(80,130)">
<line x1="0" y1="440" x2="1040" y2="440" stroke="#333" stroke-width="2"/>
<line x1="0" y1="0" x2="0" y2="440" stroke="#333" stroke-width="2"/>
<text x="-10" y="445" text-anchor="end" font-family="Arial, sans-serif" font-size="12" fill="#666">0</text>
<line x1="-5" y1="440" x2="0" y2="440" stroke="#ccc" stroke-width="1"/>
<text x="-10" y="357" text-anchor="end" font-family="Arial, sans-serif" font-size="12" fill="#666">911</text>
<line x1="-5" y1="352" x2="0" y2="352" stroke="#ccc" stroke-width="1"/>
<text x="-10" y="269" text-anchor="end" font-family="Arial, sans-serif" font-size="12" fill="#666">1822</text>
<line x1="-5" y1="264" x2="0" y2="264" stroke="#ccc" stroke-width="1"/>
<text x="-10" y="181" text-anchor="end" font-family="Arial, sans-serif" font-size="12" fill="#666">2733</text>
<line x1="-5" y1="176" x2="0" y2="176" stroke="#ccc" stroke-width="1"/>
<text x="-10" y="93" text-anchor="end" font-family="Arial, sans-serif" font-size="12" fill="#666">3644</text>
<line x1="-5" y1="88" x2="0" y2="88" stroke="#ccc" stroke-width="1"/>
<text x="-10" y="5" text-anchor="end" font-family="Arial, sans-serif" font-size="12" fill="#666">4556</text>
<line x1="-5" y1="0" x2="0" y2="0" stroke="#ccc" stroke-width="1"/>
<text x="0" y="460" text-anchor="middle" font-family="Arial, sans-serif" font-size="10" fill="#666">0.0h</text>
<text x="104" y="460" text-anchor="middle" font-family="Arial, sans-serif" font-size="10" fill="#666">1.4d</text>
<text x="208" y="460" text-anchor="middle" font-family="Arial, sans-serif" font-size="10" fill="#666">2.8d</text>
<text x="312" y="460" text-anchor="middle" font-family="Arial, sans-serif" font-size="10" fill="#666">4.3d</text>
<text x="416" y="460" text-anchor="middle" font-family="Arial, sans-serif" font-size="10" fill="#666">5.7d</text>
<text x="520" y="460" text-anchor="middle" font-family="Arial, sans-serif" font-size="10" fill="#666">7.1d</text>
<text x="624" y="460" text-anchor="middle" font-family="Arial, sans-serif" font-size="10" fill="#666">8.5d</text>
<text x="728" y="460" text-anchor="middle" font-family="Arial, sans-serif" font-size="10" fill="#666">9.9d</text>
<text x="832" y="460" text-anchor="middle" font-family="Arial, sans-serif" font-size="10" fill="#666">11.3d</text>
<text x="936" y="460" text-anchor="middle" font-family="Arial, sans-serif" font-size="10" fill="#666">12.8d</text>
<text x="1040" y="460" text-anchor="middle" font-family="Arial, sans-serif" font-size="10" fill="#666">14.2d</text>
<polyline points="0,261 2,241 17,240 18,240 18,240 18,239 19,239 19,239 20,239 20,237 83,237 83,235 84,235 84,235 86,234 86,233 87,227 88,228 98,222 98,222 101,219 101,219 107,219 111,219 285,209 291,188 291,188 294,186 294,178 294,178 296,178 382,184 383,181 384,181 384,180 389,172 395,148 432,115 453,111 455,107 457,107 510,98 511,97 511,97 511,97 528,97 538,93 538,85 538,85 539,83 542,82 581,78 582,78 582,78 583,71 583,62 585,60 585,56 585,54 585,54 585,55 586,55 587,55 587,54 588,55 588,55 592,55 595,56 598,33 599,33 599,31 600,31 601,22 603,22 604,17 604,15 604,15 604,15 604,14 605,13 609,13 610,12 610,0 650,158 650,158 718,158 719,158 720,165 722,163 724,163 741,161 800,152 800,145 801,144 803,140 803,139 805,134 964,133 966,133 967,133 969,126 969,126 1036,126 1037,94 1039,94 1040,45 " fill="none" stroke="#50C878" stroke-width="3"/>
<circle cx="0" cy="261" r="4" fill="#50C878"/>
<circle cx="18" cy="239" r="4" fill="#50C878"/>
<circle cx="83" cy="237" r="4" fill="#50C878"/>
<circle cx="86" cy="233" r="4" fill="#50C878"/>
<circle cx="101" cy="219" r="4" fill="#50C878"/>
<circle cx="291" cy="188" r="4" fill="#50C878"/>
<circle cx="296" cy="178" r="4" fill="#50C878"/>
<circle cx="389" cy="172" r="4" fill="#50C878"/>
<circle cx="457" cy="107" r="4" fill="#50C878"/>
<circle cx="528" cy="97" r="4" fill="#50C878"/>
<circle cx="542" cy="82" r="4" fill="#50C878"/>
<circle cx="583" cy="62" r="4" fill="#50C878"/>
<circle cx="585" cy="55" r="4" fill="#50C878"/>
<circle cx="588" cy="55" r="4" fill="#50C878"/>
<circle cx="599" cy="31" r="4" fill="#50C878"/>
<circle cx="604" cy="15" r="4" fill="#50C878"/>
<circle cx="609" cy="13" r="4" fill="#50C878"/>
<circle cx="718" cy="158" r="4" fill="#50C878"/>
<circle cx="741" cy="161" r="4" fill="#50C878"/>
<circle cx="803" cy="139" r="4" fill="#50C878"/>
<circle cx="969" cy="126" r="4" fill="#50C878"/>
<circle cx="1040" cy="45" r="4" fill="#50C878"/>
</g>
</svg>