<svg xmlns="http://www.w3.org/2000/svg" width="1200" height="700">
<rect width="100%" height="100%" fill="white"/>
<text x="600" y="30" text-anchor="middle" font-family="Arial, sans-serif" font-size="24" font-weight="bold" fill="black">Cumulative Modified Files Over Time - platform</text>
<g transform="translate(80,130)">
<line x1="0" y1="440" x2="1040" y2="440" stroke="#333" stroke-width="2"/>
<line x1="0" y1="0" x2="0" y2="440" stroke="#333" stroke-width="2"/>
<text x="-10" y="445" text-anchor="end" font-family="Arial, sans-serif" font-size="12" fill="#666">0</text>
<line x1="-5" y1="440" x2="0" y2="440" stroke="#ccc" stroke-width="1"/>
<text x="-10" y="357" text-anchor="end" font-family="Arial, sans-serif" font-size="12" fill="#666">112</text>
<line x1="-5" y1="352" x2="0" y2="352" stroke="#ccc" stroke-width="1"/>
<text x="-10" y="269" text-anchor="end" font-family="Arial, sans-serif" font-size="12" fill="#666">224</text>
<line x1="-5" y1="264" x2="0" y2="264" stroke="#ccc" stroke-width="1"/>
<text x="-10" y="181" text-anchor="end" font-family="Arial, sans-serif" font-size="12" fill="#666">336</text>
<line x1="-5" y1="176" x2="0" y2="176" stroke="#ccc" stroke-width="1"/>
<text x="-10" y="93" text-anchor="end" font-family="Arial, sans-serif" font-size="12" fill="#666">448</text>
<line x1="-5" y1="88" x2="0" y2="88" stroke="#ccc" stroke-width="1"/>
<text x="-10" y="5" text-anchor="end" font-family="Arial, sans-serif" font-size="12" fill="#666">560</text>
<line x1="-5" y1="0" x2="0" y2="0" stroke="#ccc" stroke-width="1"/>
<text x="0" y="460" text-anchor="middle" font-family="Arial, sans-serif" font-size="10" fill="#666">0.0h</text>
<text x="104" y="460" text-anchor="middle" font-family="Arial, sans-serif" font-size="10" fill="#666">1.4d</text>
<text x="208" y="460" text-anchor="middle" font-family="Arial, sans-serif" font-size="10" fill="#666">2.8d</text>
<text x="312" y="460" text-anchor="middle" font-family="Arial, sans-serif" font-size="10" fill="#666">4.3d</text>
<text x="416" y="460" text-anchor="middle" font-family="Arial, sans-serif" font-size="10" fill="#666">5.7d</text>
<text x="520" y="460" text-anchor="middle" font-family="Arial, sans-serif" font-size="10" fill="#666">7.1d</text>
<text x="624" y="460" text-anchor="middle" font-family="Arial, sans-serif" font-size="10" fill="#666">8.5d</text>
<text x="728" y="460" text-anchor="middle" font-family="Arial, sans-serif" font-size="10" fill="#666">9.9d</text>
<text x="832" y="460" text-anchor="middle" font-family="Arial, sans-serif" font-size="10" fill="#666">11.3d</text>
<text x="936" y="460" text-anchor="middle" font-family="Arial, sans-serif" font-size="10" fill="#666">12.8d</text>
<text x="1040" y="460" text-anchor="middle" font-family="Arial, sans-serif" font-size="10" fill="#666">14.2d</text>
<polyline points="0,404 2,404 17,400 18,399 18,398 18,397 19,396 19,396 20,394 20,393 83,389 83,387 84,386 84,385 86,383 86,382 87,380 88,372 98,362 98,361 101,360 101,359 107,358 111,357 285,342 291,330 291,328 294,327 294,324 294,323 296,321 382,308 383,308 384,304 384,303 389,297 395,286 432,279 453,268 455,260 457,258 510,247 511,246 511,246 511,244 528,243 538,240 538,231 538,229 539,228 542,222 581,220 582,219 582,218 583,216 583,210 585,207 585,206 585,203 585,202 585,199 586,198 587,197 587,196 588,195 588,193 592,192 595,191 598,183 599,171 599,169 600,169 601,161 603,160 604,154 604,151 604,151 604,150 604,148 605,145 609,143 610,142 610,129 650,61 650,60 718,59 719,57 720,55 722,52 724,51 741,49 800,47 800,45 801,44 803,37 803,35 805,29 964,27 966,26 967,22 969,12 969,11 1036,11 1037,7 1039,5 1040,0 " fill="none" stroke="#FF6B6B" stroke-width="3"/>
<circle cx="0" cy="404" r="4" fill="#FF6B6B"/>
<circle cx="18" cy="397" r="4" fill="#FF6B6B"/>
<circle cx="83" cy="389" r="4" fill="#FF6B6B"/>
<circle cx="86" cy="382" r="4" fill="#FF6B6B"/>
<circle cx="101" cy="360" r="4" fill="#FF6B6B"/>
<circle cx="291" cy="330" r="4" fill="#FF6B6B"/>
<circle cx="296" cy="321" r="4" fill="#FF6B6B"/>
<circle cx="389" cy="297" r="4" fill="#FF6B6B"/>
<circle cx="457" cy="258" r="4" fill="#FF6B6B"/>
<circle cx="528" cy="243" r="4" fill="#FF6B6B"/>
<circle cx="542" cy="222" r="4" fill="#FF6B6B"/>
<circle cx="583" cy="210" r="4" fill="#FF6B6B"/>
<circle cx="585" cy="199" r="4" fill="#FF6B6B"/>
<circle cx="588" cy="193" r="4" fill="#FF6B6B"/>
<circle cx="599" cy="169" r="4" fill="#FF6B6B"/>
<circle cx="604" cy="151" r="4" fill="#FF6B6B"/>
<circle cx="609" cy="143" r="4" fill="#FF6B6B"/>
<circle cx="718" cy="59" r="4" fill="#FF6B6B"/>
<circle cx="741" cy="49" r="4" fill="#FF6B6B"/>
<circle cx="803" cy="35" r="4" fill="#FF6B6B"/>
<circle cx="969" cy="12" r="4" fill="#FF6B6B"/>
<circle cx="1040" cy="0" r="4" fill="#FF6B6B"/>
</g>
</svg>