<svg xmlns="http://www.w3.org/2000/svg" width="1200" height="700">
<rect width="100%" height="100%" fill="white"/>
<text x="600" y="30" text-anchor="middle" font-family="Arial, sans-serif" font-size="24" font-weight="bold" fill="black">Cumulative Files Over Time - platform</text>
<g transform="translate(80,130)">
<line x1="0" y1="440" x2="1040" y2="440" stroke="#333" stroke-width="2"/>
<line x1="0" y1="0" x2="0" y2="440" stroke="#333" stroke-width="2"/>
<text x="-10" y="445" text-anchor="end" font-family="Arial, sans-serif" font-size="12" fill="#666">0</text>
<line x1="-5" y1="440" x2="0" y2="440" stroke="#ccc" stroke-width="1"/>
<text x="-10" y="357" text-anchor="end" font-family="Arial, sans-serif" font-size="12" fill="#666">21</text>
<line x1="-5" y1="352" x2="0" y2="352" stroke="#ccc" stroke-width="1"/>
<text x="-10" y="269" text-anchor="end" font-family="Arial, sans-serif" font-size="12" fill="#666">42</text>
<line x1="-5" y1="264" x2="0" y2="264" stroke="#ccc" stroke-width="1"/>
<text x="-10" y="181" text-anchor="end" font-family="Arial, sans-serif" font-size="12" fill="#666">63</text>
<line x1="-5" y1="176" x2="0" y2="176" stroke="#ccc" stroke-width="1"/>
<text x="-10" y="93" text-anchor="end" font-family="Arial, sans-serif" font-size="12" fill="#666">84</text>
<line x1="-5" y1="88" x2="0" y2="88" stroke="#ccc" stroke-width="1"/>
<text x="-10" y="5" text-anchor="end" font-family="Arial, sans-serif" font-size="12" fill="#666">105</text>
<line x1="-5" y1="0" x2="0" y2="0" stroke="#ccc" stroke-width="1"/>
<text x="0" y="460" text-anchor="middle" font-family="Arial, sans-serif" font-size="10" fill="#666">0.0h</text>
<text x="104" y="460" text-anchor="middle" font-family="Arial, sans-serif" font-size="10" fill="#666">1.4d</text>
<text x="208" y="460" text-anchor="middle" font-family="Arial, sans-serif" font-size="10" fill="#666">2.8d</text>
<text x="312" y="460" text-anchor="middle" font-family="Arial, sans-serif" font-size="10" fill="#666">4.3d</text>
<text x="416" y="460" text-anchor="middle" font-family="Arial, sans-serif" font-size="10" fill="#666">5.7d</text>
<text x="520" y="460" text-anchor="middle" font-family="Arial, sans-serif" font-size="10" fill="#666">7.1d</text>
<text x="624" y="460" text-anchor="middle" font-family="Arial, sans-serif" font-size="10" fill="#666">8.5d</text>
<text x="728" y="460" text-anchor="middle" font-family="Arial, sans-serif" font-size="10" fill="#666">9.9d</text>
<text x="832" y="460" text-anchor="middle" font-family="Arial, sans-serif" font-size="10" fill="#666">11.3d</text>
<text x="936" y="460" text-anchor="middle" font-family="Arial, sans-serif" font-size="10" fill="#666">12.8d</text>
<text x="1040" y="460" text-anchor="middle" font-family="Arial, sans-serif" font-size="10" fill="#666">14.2d</text>
<polyline points="0,248 2,244 17,239 18,239 18,239 18,239 19,239 19,239 20,235 20,235 83,231 83,231 84,231 84,231 86,231 86,227 87,227 88,227 98,223 98,223 101,223 101,223 107,223 111,223 285,197 291,185 291,185 294,185 294,176 294,176 296,176 382,181 383,176 384,176 384,176 389,172 395,160 432,135 453,130 455,122 457,122 510,122 511,122 511,122 511,122 528,122 538,122 538,109 538,109 539,109 542,109 581,105 582,105 582,105 583,97 583,68 585,63 585,59 585,55 585,55 585,55 586,55 587,55 587,55 588,55 588,55 592,55 595,55 598,42 599,42 599,34 600,34 601,26 603,26 604,17 604,17 604,17 604,17 604,17 605,17 609,17 610,13 610,0 650,176 650,176 718,176 719,176 720,185 722,181 724,181 741,181 800,176 800,168 801,168 803,168 803,168 805,160 964,160 966,160 967,147 969,139 969,139 1036,139 1037,118 1039,118 1040,114 " fill="none" stroke="#4A90E2" stroke-width="3"/>
<circle cx="0" cy="248" r="4" fill="#4A90E2"/>
<circle cx="18" cy="239" r="4" fill="#4A90E2"/>
<circle cx="83" cy="231" r="4" fill="#4A90E2"/>
<circle cx="86" cy="227" r="4" fill="#4A90E2"/>
<circle cx="101" cy="223" r="4" fill="#4A90E2"/>
<circle cx="291" cy="185" r="4" fill="#4A90E2"/>
<circle cx="296" cy="176" r="4" fill="#4A90E2"/>
<circle cx="389" cy="172" r="4" fill="#4A90E2"/>
<circle cx="457" cy="122" r="4" fill="#4A90E2"/>
<circle cx="528" cy="122" r="4" fill="#4A90E2"/>
<circle cx="542" cy="109" r="4" fill="#4A90E2"/>
<circle cx="583" cy="68" r="4" fill="#4A90E2"/>
<circle cx="585" cy="55" r="4" fill="#4A90E2"/>
<circle cx="588" cy="55" r="4" fill="#4A90E2"/>
<circle cx="599" cy="34" r="4" fill="#4A90E2"/>
<circle cx="604" cy="17" r="4" fill="#4A90E2"/>
<circle cx="609" cy="17" r="4" fill="#4A90E2"/>
<circle cx="718" cy="176" r="4" fill="#4A90E2"/>
<circle cx="741" cy="181" r="4" fill="#4A90E2"/>
<circle cx="803" cy="168" r="4" fill="#4A90E2"/>
<circle cx="969" cy="139" r="4" fill="#4A90E2"/>
<circle cx="1040" cy="114" r="4" fill="#4A90E2"/>
</g>
</svg>