<svg xmlns="http://www.w3.org/2000/svg" width="1200" height="700">
<text x="600" y="30" text-anchor="middle" font-family="Arial, sans-serif" font-size="24" font-weight="bold">Cumulative Lines Over Time</text>
<g transform="translate(80,130)">
<line x1="0" y1="440" x2="1040" y2="440" stroke="#333" stroke-width="2"/>
<line x1="0" y1="0" x2="0" y2="440" stroke="#333" stroke-width="2"/>
<text x="-10" y="445" text-anchor="end" font-family="Arial, sans-serif" font-size="12" fill="#666">0</text>
<line x1="-5" y1="440" x2="0" y2="440" stroke="#ccc" stroke-width="1"/>
<text x="-10" y="357" text-anchor="end" font-family="Arial, sans-serif" font-size="12" fill="#666">3759</text>
<line x1="-5" y1="352" x2="0" y2="352" stroke="#ccc" stroke-width="1"/>
<text x="-10" y="269" text-anchor="end" font-family="Arial, sans-serif" font-size="12" fill="#666">7519</text>
<line x1="-5" y1="264" x2="0" y2="264" stroke="#ccc" stroke-width="1"/>
<text x="-10" y="181" text-anchor="end" font-family="Arial, sans-serif" font-size="12" fill="#666">11279</text>
<line x1="-5" y1="176" x2="0" y2="176" stroke="#ccc" stroke-width="1"/>
<text x="-10" y="93" text-anchor="end" font-family="Arial, sans-serif" font-size="12" fill="#666">15039</text>
<line x1="-5" y1="88" x2="0" y2="88" stroke="#ccc" stroke-width="1"/>
<text x="-10" y="5" text-anchor="end" font-family="Arial, sans-serif" font-size="12" fill="#666">18799</text>
<line x1="-5" y1="0" x2="0" y2="0" stroke="#ccc" stroke-width="1"/>
<text x="0" y="460" text-anchor="middle" font-family="Arial, sans-serif" font-size="10" fill="#666">Day 0</text>
<text x="69" y="460" text-anchor="middle" font-family="Arial, sans-serif" font-size="10" fill="#666">Day 1</text>
<text x="138" y="460" text-anchor="middle" font-family="Arial, sans-serif" font-size="10" fill="#666">Day 2</text>
<text x="208" y="460" text-anchor="middle" font-family="Arial, sans-serif" font-size="10" fill="#666">Day 3</text>
<text x="277" y="460" text-anchor="middle" font-family="Arial, sans-serif" font-size="10" fill="#666">Day 4</text>
<text x="346" y="460" text-anchor="middle" font-family="Arial, sans-serif" font-size="10" fill="#666">Day 5</text>
<text x="416" y="460" text-anchor="middle" font-family="Arial, sans-serif" font-size="10" fill="#666">Day 6</text>
<text x="485" y="460" text-anchor="middle" font-family="Arial, sans-serif" font-size="10" fill="#666">Day 7</text>
<text x="554" y="460" text-anchor="middle" font-family="Arial, sans-serif" font-size="10" fill="#666">Day 8</text>
<text x="624" y="460" text-anchor="middle" font-family="Arial, sans-serif" font-size="10" fill="#666">Day 9</text>
<text x="693" y="460" text-anchor="middle" font-family="Arial, sans-serif" font-size="10" fill="#666">Day 10</text>
<text x="762" y="460" text-anchor="middle" font-family="Arial, sans-serif" font-size="10" fill="#666">Day 11</text>
<text x="832" y="460" text-anchor="middle" font-family="Arial, sans-serif" font-size="10" fill="#666">Day 12</text>
<text x="901" y="460" text-anchor="middle" font-family="Arial, sans-serif" font-size="10" fill="#666">Day 13</text>
<text x="970" y="460" text-anchor="middle" font-family="Arial, sans-serif" font-size="10" fill="#666">Day 14</text>
<text x="1040" y="460" text-anchor="middle" font-family="Arial, sans-serif" font-size="10" fill="#666">Day 15</text>
<polyline points="0,349 " fill="none" stroke="#4A90E2" stroke-width="3"/>
<circle cx="0" cy="349" r="4" fill="#4A90E2"/>
<polyline points="0,391 69,387 138,387 208,387 277,377 346,370 416,360 485,354 554,334 624,372 693,373 762,366 832,366 901,364 970,345 " fill="none" stroke="#50C878" stroke-width="3"/>
<circle cx="0" cy="391" r="4" fill="#50C878"/>
<circle cx="69" cy="387" r="4" fill="#50C878"/>
<circle cx="138" cy="387" r="4" fill="#50C878"/>
<circle cx="208" cy="387" r="4" fill="#50C878"/>
<circle cx="277" cy="377" r="4" fill="#50C878"/>
<circle cx="346" cy="370" r="4" fill="#50C878"/>
<circle cx="416" cy="360" r="4" fill="#50C878"/>
<circle cx="485" cy="354" r="4" fill="#50C878"/>
<circle cx="554" cy="334" r="4" fill="#50C878"/>
<circle cx="624" cy="372" r="4" fill="#50C878"/>
<circle cx="693" cy="373" r="4" fill="#50C878"/>
<circle cx="762" cy="366" r="4" fill="#50C878"/>
<circle cx="832" cy="366" r="4" fill="#50C878"/>
<circle cx="901" cy="364" r="4" fill="#50C878"/>
<circle cx="970" cy="345" r="4" fill="#50C878"/>
<polyline points="0,406 69,406 138,338 208,158 277,14 346,0 " fill="none" stroke="#FF6B6B" stroke-width="3"/>
<circle cx="0" cy="406" r="4" fill="#FF6B6B"/>
<circle cx="69" cy="406" r="4" fill="#FF6B6B"/>
<circle cx="138" cy="338" r="4" fill="#FF6B6B"/>
<circle cx="208" cy="158" r="4" fill="#FF6B6B"/>
<circle cx="277" cy="14" r="4" fill="#FF6B6B"/>
<circle cx="346" cy="0" r="4" fill="#FF6B6B"/>
</g>
<g transform="translate(500,630)">
<rect x="0" y="0" width="15" height="15" fill="#4A90E2"/>
<text x="20" y="12" font-family="Arial, sans-serif" font-size="14">lessgo</text>
<rect x="150" y="0" width="15" height="15" fill="#50C878"/>
<text x="170" y="12" font-family="Arial, sans-serif" font-size="14">platform</text>
<rect x="300" y="0" width="15" height="15" fill="#FF6B6B"/>
<text x="320" y="12" font-family="Arial, sans-serif" font-size="14">vuego</text>
</g>
</svg>