<svg xmlns="http://www.w3.org/2000/svg" width="1200" height="700">
<rect width="100%" height="100%" fill="white"/>
<text x="600" y="30" text-anchor="middle" font-family="Arial, sans-serif" font-size="24" font-weight="bold" fill="black">Cumulative Lines Over Time (Raw Commits)</text>
<g transform="translate(80,130)">
<line x1="0" y1="440" x2="1040" y2="440" stroke="#333" stroke-width="2"/>
<line x1="0" y1="0" x2="0" y2="440" stroke="#333" stroke-width="2"/>
<text x="-10" y="445" text-anchor="end" font-family="Arial, sans-serif" font-size="12" fill="#666">0</text>
<line x1="-5" y1="440" x2="0" y2="440" stroke="#ccc" stroke-width="1"/>
<text x="-10" y="357" text-anchor="end" font-family="Arial, sans-serif" font-size="12" fill="#666">3759</text>
<line x1="-5" y1="352" x2="0" y2="352" stroke="#ccc" stroke-width="1"/>
<text x="-10" y="269" text-anchor="end" font-family="Arial, sans-serif" font-size="12" fill="#666">7519</text>
<line x1="-5" y1="264" x2="0" y2="264" stroke="#ccc" stroke-width="1"/>
<text x="-10" y="181" text-anchor="end" font-family="Arial, sans-serif" font-size="12" fill="#666">11279</text>
<line x1="-5" y1="176" x2="0" y2="176" stroke="#ccc" stroke-width="1"/>
<text x="-10" y="93" text-anchor="end" font-family="Arial, sans-serif" font-size="12" fill="#666">15039</text>
<line x1="-5" y1="88" x2="0" y2="88" stroke="#ccc" stroke-width="1"/>
<text x="-10" y="5" text-anchor="end" font-family="Arial, sans-serif" font-size="12" fill="#666">18799</text>
<line x1="-5" y1="0" x2="0" y2="0" stroke="#ccc" stroke-width="1"/>
<text x="0" y="460" text-anchor="middle" font-family="Arial, sans-serif" font-size="10" fill="#666">0.0h</text>
<text x="104" y="460" text-anchor="middle" font-family="Arial, sans-serif" font-size="10" fill="#666">1.4d</text>
<text x="208" y="460" text-anchor="middle" font-family="Arial, sans-serif" font-size="10" fill="#666">2.8d</text>
<text x="312" y="460" text-anchor="middle" font-family="Arial, sans-serif" font-size="10" fill="#666">4.3d</text>
<text x="416" y="460" text-anchor="middle" font-family="Arial, sans-serif" font-size="10" fill="#666">5.7d</text>
<text x="520" y="460" text-anchor="middle" font-family="Arial, sans-serif" font-size="10" fill="#666">7.1d</text>
<text x="624" y="460" text-anchor="middle" font-family="Arial, sans-serif" font-size="10" fill="#666">8.5d</text>
<text x="728" y="460" text-anchor="middle" font-family="Arial, sans-serif" font-size="10" fill="#666">9.9d</text>
<text x="832" y="460" text-anchor="middle" font-family="Arial, sans-serif" font-size="10" fill="#666">11.3d</text>
<text x="936" y="460" text-anchor="middle" font-family="Arial, sans-serif" font-size="10" fill="#666">12.8d</text>
<text x="1040" y="460" text-anchor="middle" font-family="Arial, sans-serif" font-size="10" fill="#666">14.2d</text>
<polyline points="0,440 0,436 0,436 0,436 0,436 0,436 0,436 0,436 0,436 0,436 1,435 1,435 1,435 1,418 1,417 1,417 2,417 2,417 3,417 4,417 4,417 4,417 4,417 5,417 5,417 5,417 5,417 5,417 5,417 6,417 6,417 6,417 8,355 8,354 10,354 10,354 10,354 10,354 10,354 11,354 11,356 12,356 12,356 12,358 15,358 15,358 15,358 15,358 17,350 18,349 " fill="none" stroke="#4A90E2" stroke-width="3"/>
<circle cx="0" cy="440" r="4" fill="#4A90E2"/>
<circle cx="0" cy="436" r="4" fill="#4A90E2"/>
<circle cx="0" cy="436" r="4" fill="#4A90E2"/>
<circle cx="0" cy="436" r="4" fill="#4A90E2"/>
<circle cx="0" cy="436" r="4" fill="#4A90E2"/>
<circle cx="1" cy="435" r="4" fill="#4A90E2"/>
<circle cx="1" cy="435" r="4" fill="#4A90E2"/>
<circle cx="1" cy="417" r="4" fill="#4A90E2"/>
<circle cx="2" cy="417" r="4" fill="#4A90E2"/>
<circle cx="3" cy="417" r="4" fill="#4A90E2"/>
<circle cx="4" cy="417" r="4" fill="#4A90E2"/>
<circle cx="4" cy="417" r="4" fill="#4A90E2"/>
<circle cx="5" cy="417" r="4" fill="#4A90E2"/>
<circle cx="5" cy="417" r="4" fill="#4A90E2"/>
<circle cx="5" cy="417" r="4" fill="#4A90E2"/>
<circle cx="6" cy="417" r="4" fill="#4A90E2"/>
<circle cx="8" cy="355" r="4" fill="#4A90E2"/>
<circle cx="10" cy="354" r="4" fill="#4A90E2"/>
<circle cx="10" cy="354" r="4" fill="#4A90E2"/>
<circle cx="10" cy="354" r="4" fill="#4A90E2"/>
<circle cx="11" cy="356" r="4" fill="#4A90E2"/>
<circle cx="12" cy="356" r="4" fill="#4A90E2"/>
<circle cx="15" cy="358" r="4" fill="#4A90E2"/>
<circle cx="15" cy="358" r="4" fill="#4A90E2"/>
<circle cx="17" cy="350" r="4" fill="#4A90E2"/>
<circle cx="18" cy="349" r="4" fill="#4A90E2"/>
<polyline points="0,397 2,392 17,392 18,392 18,392 18,392 19,392 19,392 20,392 20,391 83,391 83,391 84,391 84,391 86,390 86,390 87,389 88,389 98,388 98,388 101,387 101,387 107,387 111,387 285,384 291,379 291,379 294,379 294,377 294,377 296,377 382,378 383,378 384,378 384,377 389,375 395,370 432,362 453,361 455,360 457,360 510,357 511,357 511,357 511,357 528,357 538,356 538,354 538,354 539,354 542,354 581,353 582,353 582,353 583,351 583,349 585,348 585,347 585,347 585,347 585,347 586,347 587,347 587,347 588,347 588,347 592,347 595,347 598,342 599,342 599,341 600,341 601,339 603,339 604,338 604,337 604,337 604,337 604,337 605,337 609,337 610,337 610,334 650,372 650,372 718,372 719,372 720,374 722,373 724,373 741,373 800,371 800,369 801,369 803,368 803,367 805,366 964,366 966,366 967,366 969,364 969,364 1036,364 1037,357 1039,357 1040,345 " fill="none" stroke="#50C878" stroke-width="3"/>
<circle cx="0" cy="397" r="4" fill="#50C878"/>
<circle cx="18" cy="392" r="4" fill="#50C878"/>
<circle cx="83" cy="391" r="4" fill="#50C878"/>
<circle cx="86" cy="390" r="4" fill="#50C878"/>
<circle cx="101" cy="387" r="4" fill="#50C878"/>
<circle cx="291" cy="379" r="4" fill="#50C878"/>
<circle cx="296" cy="377" r="4" fill="#50C878"/>
<circle cx="389" cy="375" r="4" fill="#50C878"/>
<circle cx="457" cy="360" r="4" fill="#50C878"/>
<circle cx="528" cy="357" r="4" fill="#50C878"/>
<circle cx="542" cy="354" r="4" fill="#50C878"/>
<circle cx="583" cy="349" r="4" fill="#50C878"/>
<circle cx="585" cy="347" r="4" fill="#50C878"/>
<circle cx="588" cy="347" r="4" fill="#50C878"/>
<circle cx="599" cy="341" r="4" fill="#50C878"/>
<circle cx="604" cy="337" r="4" fill="#50C878"/>
<circle cx="609" cy="337" r="4" fill="#50C878"/>
<circle cx="718" cy="372" r="4" fill="#50C878"/>
<circle cx="741" cy="373" r="4" fill="#50C878"/>
<circle cx="803" cy="367" r="4" fill="#50C878"/>
<circle cx="969" cy="364" r="4" fill="#50C878"/>
<circle cx="1040" cy="345" r="4" fill="#50C878"/>
<polyline points="0,406 150,402 158,374 158,372 160,359 160,348 160,348 162,354 162,338 162,338 193,337 227,318 227,281 227,264 227,260 227,205 228,205 228,205 230,189 234,179 236,158 237,158 237,158 240,127 242,106 243,105 244,104 245,103 249,97 250,89 277,88 281,85 281,91 281,78 281,78 283,77 284,77 285,69 285,68 285,68 285,67 285,67 287,66 287,65 288,64 288,63 289,61 289,60 289,60 290,60 294,36 296,16 297,16 298,16 298,15 298,14 311,14 312,9 313,5 313,1 313,0 " fill="none" stroke="#FF6B6B" stroke-width="3"/>
<circle cx="0" cy="406" r="4" fill="#FF6B6B"/>
<circle cx="158" cy="372" r="4" fill="#FF6B6B"/>
<circle cx="160" cy="348" r="4" fill="#FF6B6B"/>
<circle cx="162" cy="338" r="4" fill="#FF6B6B"/>
<circle cx="227" cy="281" r="4" fill="#FF6B6B"/>
<circle cx="227" cy="205" r="4" fill="#FF6B6B"/>
<circle cx="230" cy="189" r="4" fill="#FF6B6B"/>
<circle cx="237" cy="158" r="4" fill="#FF6B6B"/>
<circle cx="242" cy="106" r="4" fill="#FF6B6B"/>
<circle cx="245" cy="103" r="4" fill="#FF6B6B"/>
<circle cx="277" cy="88" r="4" fill="#FF6B6B"/>
<circle cx="281" cy="78" r="4" fill="#FF6B6B"/>
<circle cx="284" cy="77" r="4" fill="#FF6B6B"/>
<circle cx="285" cy="68" r="4" fill="#FF6B6B"/>
<circle cx="287" cy="66" r="4" fill="#FF6B6B"/>
<circle cx="288" cy="63" r="4" fill="#FF6B6B"/>
<circle cx="289" cy="60" r="4" fill="#FF6B6B"/>
<circle cx="296" cy="16" r="4" fill="#FF6B6B"/>
<circle cx="298" cy="15" r="4" fill="#FF6B6B"/>
<circle cx="312" cy="9" r="4" fill="#FF6B6B"/>
<circle cx="313" cy="0" r="4" fill="#FF6B6B"/>
</g>
<g transform="translate(500,630)">
<rect x="0" y="0" width="15" height="15" fill="#4A90E2"/>
<text x="20" y="12" font-family="Arial, sans-serif" font-size="14">lessgo</text>
<rect x="150" y="0" width="15" height="15" fill="#50C878"/>
<text x="170" y="12" font-family="Arial, sans-serif" font-size="14">platform</text>
<rect x="300" y="0" width="15" height="15" fill="#FF6B6B"/>
<text x="320" y="12" font-family="Arial, sans-serif" font-size="14">vuego</text>
</g>
</svg>