<svg xmlns="http://www.w3.org/2000/svg" width="1200" height="700">
<text x="600" y="30" text-anchor="middle" font-family="Arial, sans-serif" font-size="24" font-weight="bold">Cumulative Lines Over Time</text>
<g transform="translate(80,130)">
<line x1="0" y1="440" x2="1040" y2="440" stroke="#333" stroke-width="2"/>
<line x1="0" y1="0" x2="0" y2="440" stroke="#333" stroke-width="2"/>
<text x="-10" y="445" text-anchor="end" font-family="Arial, sans-serif" font-size="12" fill="#666">0</text>
<line x1="-5" y1="440" x2="0" y2="440" stroke="#ccc" stroke-width="1"/>
<text x="-10" y="357" text-anchor="end" font-family="Arial, sans-serif" font-size="12" fill="#666">3469</text>
<line x1="-5" y1="352" x2="0" y2="352" stroke="#ccc" stroke-width="1"/>
<text x="-10" y="269" text-anchor="end" font-family="Arial, sans-serif" font-size="12" fill="#666">6938</text>
<line x1="-5" y1="264" x2="0" y2="264" stroke="#ccc" stroke-width="1"/>
<text x="-10" y="181" text-anchor="end" font-family="Arial, sans-serif" font-size="12" fill="#666">10407</text>
<line x1="-5" y1="176" x2="0" y2="176" stroke="#ccc" stroke-width="1"/>
<text x="-10" y="93" text-anchor="end" font-family="Arial, sans-serif" font-size="12" fill="#666">13876</text>
<line x1="-5" y1="88" x2="0" y2="88" stroke="#ccc" stroke-width="1"/>
<text x="-10" y="5" text-anchor="end" font-family="Arial, sans-serif" font-size="12" fill="#666">17346</text>
<line x1="-5" y1="0" x2="0" y2="0" stroke="#ccc" stroke-width="1"/>
<text x="0" y="460" text-anchor="middle" font-family="Arial, sans-serif" font-size="10" fill="#666">Day 0</text>
<text x="90" y="460" text-anchor="middle" font-family="Arial, sans-serif" font-size="10" fill="#666">Day 2</text>
<text x="180" y="460" text-anchor="middle" font-family="Arial, sans-serif" font-size="10" fill="#666">Day 4</text>
<text x="271" y="460" text-anchor="middle" font-family="Arial, sans-serif" font-size="10" fill="#666">Day 6</text>
<text x="361" y="460" text-anchor="middle" font-family="Arial, sans-serif" font-size="10" fill="#666">Day 8</text>
<text x="452" y="460" text-anchor="middle" font-family="Arial, sans-serif" font-size="10" fill="#666">Day 10</text>
<text x="542" y="460" text-anchor="middle" font-family="Arial, sans-serif" font-size="10" fill="#666">Day 12</text>
<text x="633" y="460" text-anchor="middle" font-family="Arial, sans-serif" font-size="10" fill="#666">Day 14</text>
<text x="723" y="460" text-anchor="middle" font-family="Arial, sans-serif" font-size="10" fill="#666">Day 16</text>
<text x="813" y="460" text-anchor="middle" font-family="Arial, sans-serif" font-size="10" fill="#666">Day 18</text>
<text x="904" y="460" text-anchor="middle" font-family="Arial, sans-serif" font-size="10" fill="#666">Day 20</text>
<text x="994" y="460" text-anchor="middle" font-family="Arial, sans-serif" font-size="10" fill="#666">Day 22</text>
<text x="1040" y="460" text-anchor="middle" font-family="Arial, sans-serif" font-size="10" fill="#666">Day 23</text>
<polyline points="0,440 45,440 90,440 135,440 180,440 226,440 271,440 316,440 361,440 406,440 452,440 497,440 542,440 587,440 633,440 678,440 723,440 768,440 813,440 859,440 904,440 949,440 994,440 1040,341 " fill="none" stroke="#4A90E2" stroke-width="3"/>
<circle cx="0" cy="440" r="4" fill="#4A90E2"/>
<circle cx="45" cy="440" r="4" fill="#4A90E2"/>
<circle cx="90" cy="440" r="4" fill="#4A90E2"/>
<circle cx="135" cy="440" r="4" fill="#4A90E2"/>
<circle cx="180" cy="440" r="4" fill="#4A90E2"/>
<circle cx="226" cy="440" r="4" fill="#4A90E2"/>
<circle cx="271" cy="440" r="4" fill="#4A90E2"/>
<circle cx="316" cy="440" r="4" fill="#4A90E2"/>
<circle cx="361" cy="440" r="4" fill="#4A90E2"/>
<circle cx="406" cy="440" r="4" fill="#4A90E2"/>
<circle cx="452" cy="440" r="4" fill="#4A90E2"/>
<circle cx="497" cy="440" r="4" fill="#4A90E2"/>
<circle cx="542" cy="440" r="4" fill="#4A90E2"/>
<circle cx="587" cy="440" r="4" fill="#4A90E2"/>
<circle cx="633" cy="440" r="4" fill="#4A90E2"/>
<circle cx="678" cy="440" r="4" fill="#4A90E2"/>
<circle cx="723" cy="440" r="4" fill="#4A90E2"/>
<circle cx="768" cy="440" r="4" fill="#4A90E2"/>
<circle cx="813" cy="440" r="4" fill="#4A90E2"/>
<circle cx="859" cy="440" r="4" fill="#4A90E2"/>
<circle cx="904" cy="440" r="4" fill="#4A90E2"/>
<circle cx="949" cy="440" r="4" fill="#4A90E2"/>
<circle cx="994" cy="440" r="4" fill="#4A90E2"/>
<circle cx="1040" cy="341" r="4" fill="#4A90E2"/>
<polyline points="0,387 45,382 90,382 135,382 180,430 226,422 271,411 316,405 361,383 406,425 452,425 497,418 542,418 587,438 633,417 678,417 723,417 768,417 813,417 859,417 904,417 949,417 994,417 1040,417 " fill="none" stroke="#50C878" stroke-width="3"/>
<circle cx="0" cy="387" r="4" fill="#50C878"/>
<circle cx="45" cy="382" r="4" fill="#50C878"/>
<circle cx="90" cy="382" r="4" fill="#50C878"/>
<circle cx="135" cy="382" r="4" fill="#50C878"/>
<circle cx="180" cy="430" r="4" fill="#50C878"/>
<circle cx="226" cy="422" r="4" fill="#50C878"/>
<circle cx="271" cy="411" r="4" fill="#50C878"/>
<circle cx="316" cy="405" r="4" fill="#50C878"/>
<circle cx="361" cy="383" r="4" fill="#50C878"/>
<circle cx="406" cy="425" r="4" fill="#50C878"/>
<circle cx="452" cy="425" r="4" fill="#50C878"/>
<circle cx="497" cy="418" r="4" fill="#50C878"/>
<circle cx="542" cy="418" r="4" fill="#50C878"/>
<circle cx="587" cy="438" r="4" fill="#50C878"/>
<circle cx="633" cy="417" r="4" fill="#50C878"/>
<circle cx="678" cy="417" r="4" fill="#50C878"/>
<circle cx="723" cy="417" r="4" fill="#50C878"/>
<circle cx="768" cy="417" r="4" fill="#50C878"/>
<circle cx="813" cy="417" r="4" fill="#50C878"/>
<circle cx="859" cy="417" r="4" fill="#50C878"/>
<circle cx="904" cy="417" r="4" fill="#50C878"/>
<circle cx="949" cy="417" r="4" fill="#50C878"/>
<circle cx="994" cy="417" r="4" fill="#50C878"/>
<circle cx="1040" cy="417" r="4" fill="#50C878"/>
<polyline points="0,440 45,440 90,440 135,440 180,440 226,440 271,440 316,440 361,440 406,440 452,440 497,440 542,440 587,440 633,440 678,440 723,440 768,404 813,404 859,366 904,171 949,15 994,0 1040,0 " fill="none" stroke="#FF6B6B" stroke-width="3"/>
<circle cx="0" cy="440" r="4" fill="#FF6B6B"/>
<circle cx="45" cy="440" r="4" fill="#FF6B6B"/>
<circle cx="90" cy="440" r="4" fill="#FF6B6B"/>
<circle cx="135" cy="440" r="4" fill="#FF6B6B"/>
<circle cx="180" cy="440" r="4" fill="#FF6B6B"/>
<circle cx="226" cy="440" r="4" fill="#FF6B6B"/>
<circle cx="271" cy="440" r="4" fill="#FF6B6B"/>
<circle cx="316" cy="440" r="4" fill="#FF6B6B"/>
<circle cx="361" cy="440" r="4" fill="#FF6B6B"/>
<circle cx="406" cy="440" r="4" fill="#FF6B6B"/>
<circle cx="452" cy="440" r="4" fill="#FF6B6B"/>
<circle cx="497" cy="440" r="4" fill="#FF6B6B"/>
<circle cx="542" cy="440" r="4" fill="#FF6B6B"/>
<circle cx="587" cy="440" r="4" fill="#FF6B6B"/>
<circle cx="633" cy="440" r="4" fill="#FF6B6B"/>
<circle cx="678" cy="440" r="4" fill="#FF6B6B"/>
<circle cx="723" cy="440" r="4" fill="#FF6B6B"/>
<circle cx="768" cy="404" r="4" fill="#FF6B6B"/>
<circle cx="813" cy="404" r="4" fill="#FF6B6B"/>
<circle cx="859" cy="366" r="4" fill="#FF6B6B"/>
<circle cx="904" cy="171" r="4" fill="#FF6B6B"/>
<circle cx="949" cy="15" r="4" fill="#FF6B6B"/>
<circle cx="994" cy="0" r="4" fill="#FF6B6B"/>
<circle cx="1040" cy="0" r="4" fill="#FF6B6B"/>
</g>
<g transform="translate(500,630)">
<rect x="0" y="0" width="15" height="15" fill="#4A90E2"/>
<text x="20" y="12" font-family="Arial, sans-serif" font-size="14">lessgo</text>
<rect x="150" y="0" width="15" height="15" fill="#50C878"/>
<text x="170" y="12" font-family="Arial, sans-serif" font-size="14">platform</text>
<rect x="300" y="0" width="15" height="15" fill="#FF6B6B"/>
<text x="320" y="12" font-family="Arial, sans-serif" font-size="14">vuego</text>
</g>
</svg>