<svg xmlns="http://www.w3.org/2000/svg" width="1200" height="700">
<rect width="100%" height="100%" fill="white"/>
<text x="600" y="30" text-anchor="middle" font-family="Arial, sans-serif" font-size="24" font-weight="bold" fill="black">Cumulative Files Over Time - lessgo</text>
<g transform="translate(80,130)">
<line x1="0" y1="440" x2="1040" y2="440" stroke="#333" stroke-width="2"/>
<line x1="0" y1="0" x2="0" y2="440" stroke="#333" stroke-width="2"/>
<text x="-10" y="445" text-anchor="end" font-family="Arial, sans-serif" font-size="12" fill="#666">0</text>
<line x1="-5" y1="440" x2="0" y2="440" stroke="#ccc" stroke-width="1"/>
<text x="-10" y="357" text-anchor="end" font-family="Arial, sans-serif" font-size="12" fill="#666">32</text>
<line x1="-5" y1="352" x2="0" y2="352" stroke="#ccc" stroke-width="1"/>
<text x="-10" y="269" text-anchor="end" font-family="Arial, sans-serif" font-size="12" fill="#666">65</text>
<line x1="-5" y1="264" x2="0" y2="264" stroke="#ccc" stroke-width="1"/>
<text x="-10" y="181" text-anchor="end" font-family="Arial, sans-serif" font-size="12" fill="#666">97</text>
<line x1="-5" y1="176" x2="0" y2="176" stroke="#ccc" stroke-width="1"/>
<text x="-10" y="93" text-anchor="end" font-family="Arial, sans-serif" font-size="12" fill="#666">130</text>
<line x1="-5" y1="88" x2="0" y2="88" stroke="#ccc" stroke-width="1"/>
<text x="-10" y="5" text-anchor="end" font-family="Arial, sans-serif" font-size="12" fill="#666">163</text>
<line x1="-5" y1="0" x2="0" y2="0" stroke="#ccc" stroke-width="1"/>
<text x="0" y="460" text-anchor="middle" font-family="Arial, sans-serif" font-size="10" fill="#666">0</text>
<text x="84" y="460" text-anchor="middle" font-family="Arial, sans-serif" font-size="10" fill="#666">4</text>
<text x="169" y="460" text-anchor="middle" font-family="Arial, sans-serif" font-size="10" fill="#666">8</text>
<text x="254" y="460" text-anchor="middle" font-family="Arial, sans-serif" font-size="10" fill="#666">12</text>
<text x="339" y="460" text-anchor="middle" font-family="Arial, sans-serif" font-size="10" fill="#666">16</text>
<text x="424" y="460" text-anchor="middle" font-family="Arial, sans-serif" font-size="10" fill="#666">20</text>
<text x="509" y="460" text-anchor="middle" font-family="Arial, sans-serif" font-size="10" fill="#666">24</text>
<text x="594" y="460" text-anchor="middle" font-family="Arial, sans-serif" font-size="10" fill="#666">28</text>
<text x="679" y="460" text-anchor="middle" font-family="Arial, sans-serif" font-size="10" fill="#666">32</text>
<text x="764" y="460" text-anchor="middle" font-family="Arial, sans-serif" font-size="10" fill="#666">36</text>
<text x="848" y="460" text-anchor="middle" font-family="Arial, sans-serif" font-size="10" fill="#666">40</text>
<text x="933" y="460" text-anchor="middle" font-family="Arial, sans-serif" font-size="10" fill="#666">44</text>
<text x="1018" y="460" text-anchor="middle" font-family="Arial, sans-serif" font-size="10" fill="#666">48</text>
<text x="1040" y="460" text-anchor="middle" font-family="Arial, sans-serif" font-size="10" fill="#666">49</text>
<polyline points="0,387 21,384 42,384 63,384 84,381 106,376 127,376 148,370 169,365 191,357 212,357 233,357 254,349 275,330 297,330 318,330 339,324 360,324 382,281 403,279 424,273 445,273 466,273 488,268 509,262 530,257 551,252 573,252 594,249 615,246 636,238 657,233 679,25 700,25 721,25 742,25 764,25 785,25 806,25 827,25 848,27 870,27 891,27 912,30 933,30 955,30 976,30 997,30 1018,0 1040,0 " fill="none" stroke="#4A90E2" stroke-width="3"/>
<circle cx="0" cy="387" r="4" fill="#4A90E2"/>
<circle cx="42" cy="384" r="4" fill="#4A90E2"/>
<circle cx="84" cy="381" r="4" fill="#4A90E2"/>
<circle cx="127" cy="376" r="4" fill="#4A90E2"/>
<circle cx="169" cy="365" r="4" fill="#4A90E2"/>
<circle cx="212" cy="357" r="4" fill="#4A90E2"/>
<circle cx="254" cy="349" r="4" fill="#4A90E2"/>
<circle cx="297" cy="330" r="4" fill="#4A90E2"/>
<circle cx="339" cy="324" r="4" fill="#4A90E2"/>
<circle cx="382" cy="281" r="4" fill="#4A90E2"/>
<circle cx="424" cy="273" r="4" fill="#4A90E2"/>
<circle cx="466" cy="273" r="4" fill="#4A90E2"/>
<circle cx="509" cy="262" r="4" fill="#4A90E2"/>
<circle cx="551" cy="252" r="4" fill="#4A90E2"/>
<circle cx="594" cy="249" r="4" fill="#4A90E2"/>
<circle cx="636" cy="238" r="4" fill="#4A90E2"/>
<circle cx="679" cy="25" r="4" fill="#4A90E2"/>
<circle cx="721" cy="25" r="4" fill="#4A90E2"/>
<circle cx="764" cy="25" r="4" fill="#4A90E2"/>
<circle cx="806" cy="25" r="4" fill="#4A90E2"/>
<circle cx="848" cy="27" r="4" fill="#4A90E2"/>
<circle cx="891" cy="27" r="4" fill="#4A90E2"/>
<circle cx="933" cy="30" r="4" fill="#4A90E2"/>
<circle cx="976" cy="30" r="4" fill="#4A90E2"/>
<circle cx="1018" cy="0" r="4" fill="#4A90E2"/>
<circle cx="1040" cy="0" r="4" fill="#4A90E2"/>
</g>
</svg>