<svg xmlns="http://www.w3.org/2000/svg" width="1200" height="700">
<rect width="100%" height="100%" fill="white"/>
<text x="600" y="30" text-anchor="middle" font-family="Arial, sans-serif" font-size="24" font-weight="bold" fill="black">Cumulative Files Over Time - lessgo</text>
<g transform="translate(80,130)">
<line x1="0" y1="440" x2="1040" y2="440" stroke="#333" stroke-width="2"/>
<line x1="0" y1="0" x2="0" y2="440" stroke="#333" stroke-width="2"/>
<text x="-10" y="445" text-anchor="end" font-family="Arial, sans-serif" font-size="12" fill="#666">0</text>
<line x1="-5" y1="440" x2="0" y2="440" stroke="#ccc" stroke-width="1"/>
<text x="-10" y="357" text-anchor="end" font-family="Arial, sans-serif" font-size="12" fill="#666">32</text>
<line x1="-5" y1="352" x2="0" y2="352" stroke="#ccc" stroke-width="1"/>
<text x="-10" y="269" text-anchor="end" font-family="Arial, sans-serif" font-size="12" fill="#666">65</text>
<line x1="-5" y1="264" x2="0" y2="264" stroke="#ccc" stroke-width="1"/>
<text x="-10" y="181" text-anchor="end" font-family="Arial, sans-serif" font-size="12" fill="#666">97</text>
<line x1="-5" y1="176" x2="0" y2="176" stroke="#ccc" stroke-width="1"/>
<text x="-10" y="93" text-anchor="end" font-family="Arial, sans-serif" font-size="12" fill="#666">130</text>
<line x1="-5" y1="88" x2="0" y2="88" stroke="#ccc" stroke-width="1"/>
<text x="-10" y="5" text-anchor="end" font-family="Arial, sans-serif" font-size="12" fill="#666">163</text>
<line x1="-5" y1="0" x2="0" y2="0" stroke="#ccc" stroke-width="1"/>
<text x="0" y="460" text-anchor="middle" font-family="Arial, sans-serif" font-size="10" fill="#666">0.0h</text>
<text x="104" y="460" text-anchor="middle" font-family="Arial, sans-serif" font-size="10" fill="#666">0.6h</text>
<text x="208" y="460" text-anchor="middle" font-family="Arial, sans-serif" font-size="10" fill="#666">1.2h</text>
<text x="312" y="460" text-anchor="middle" font-family="Arial, sans-serif" font-size="10" fill="#666">1.8h</text>
<text x="416" y="460" text-anchor="middle" font-family="Arial, sans-serif" font-size="10" fill="#666">2.4h</text>
<text x="520" y="460" text-anchor="middle" font-family="Arial, sans-serif" font-size="10" fill="#666">3.0h</text>
<text x="624" y="460" text-anchor="middle" font-family="Arial, sans-serif" font-size="10" fill="#666">3.6h</text>
<text x="728" y="460" text-anchor="middle" font-family="Arial, sans-serif" font-size="10" fill="#666">4.3h</text>
<text x="832" y="460" text-anchor="middle" font-family="Arial, sans-serif" font-size="10" fill="#666">4.9h</text>
<text x="936" y="460" text-anchor="middle" font-family="Arial, sans-serif" font-size="10" fill="#666">5.5h</text>
<text x="1040" y="460" text-anchor="middle" font-family="Arial, sans-serif" font-size="10" fill="#666">6.1h</text>
<polyline points="0,387 1,384 12,384 14,384 26,381 28,376 33,376 34,370 47,365 55,357 56,357 58,357 61,349 102,330 107,330 107,330 117,324 118,324 193,281 233,279 249,273 251,273 254,273 289,268 291,262 315,257 318,252 319,252 328,249 364,246 366,238 378,233 483,25 484,25 569,25 601,25 604,25 605,25 614,25 617,25 643,27 685,27 702,27 720,30 839,30 842,30 846,30 860,30 990,0 1040,0 " fill="none" stroke="#4A90E2" stroke-width="3"/>
<circle cx="0" cy="387" r="4" fill="#4A90E2"/>
<circle cx="12" cy="384" r="4" fill="#4A90E2"/>
<circle cx="26" cy="381" r="4" fill="#4A90E2"/>
<circle cx="33" cy="376" r="4" fill="#4A90E2"/>
<circle cx="47" cy="365" r="4" fill="#4A90E2"/>
<circle cx="56" cy="357" r="4" fill="#4A90E2"/>
<circle cx="61" cy="349" r="4" fill="#4A90E2"/>
<circle cx="107" cy="330" r="4" fill="#4A90E2"/>
<circle cx="117" cy="324" r="4" fill="#4A90E2"/>
<circle cx="193" cy="281" r="4" fill="#4A90E2"/>
<circle cx="249" cy="273" r="4" fill="#4A90E2"/>
<circle cx="254" cy="273" r="4" fill="#4A90E2"/>
<circle cx="291" cy="262" r="4" fill="#4A90E2"/>
<circle cx="318" cy="252" r="4" fill="#4A90E2"/>
<circle cx="328" cy="249" r="4" fill="#4A90E2"/>
<circle cx="366" cy="238" r="4" fill="#4A90E2"/>
<circle cx="483" cy="25" r="4" fill="#4A90E2"/>
<circle cx="569" cy="25" r="4" fill="#4A90E2"/>
<circle cx="604" cy="25" r="4" fill="#4A90E2"/>
<circle cx="614" cy="25" r="4" fill="#4A90E2"/>
<circle cx="643" cy="27" r="4" fill="#4A90E2"/>
<circle cx="702" cy="27" r="4" fill="#4A90E2"/>
<circle cx="839" cy="30" r="4" fill="#4A90E2"/>
<circle cx="846" cy="30" r="4" fill="#4A90E2"/>
<circle cx="990" cy="0" r="4" fill="#4A90E2"/>
<circle cx="1040" cy="0" r="4" fill="#4A90E2"/>
</g>
</svg>