<svg xmlns="http://www.w3.org/2000/svg" width="1200" height="700">
<rect width="100%" height="100%" fill="white"/>
<text x="600" y="30" text-anchor="middle" font-family="Arial, sans-serif" font-size="24" font-weight="bold" fill="black">Code Churn Over Time - lessgo</text>
<g transform="translate(80,130)">
<line x1="0" y1="440" x2="1040" y2="440" stroke="#333" stroke-width="2"/>
<line x1="0" y1="0" x2="0" y2="440" stroke="#333" stroke-width="2"/>
<text x="-10" y="445" text-anchor="end" font-family="Arial, sans-serif" font-size="12" fill="#666">0.0%</text>
<line x1="-5" y1="440" x2="0" y2="440" stroke="#ccc" stroke-width="1"/>
<text x="-10" y="357" text-anchor="end" font-family="Arial, sans-serif" font-size="12" fill="#666">20.0%</text>
<line x1="-5" y1="352" x2="0" y2="352" stroke="#ccc" stroke-width="1"/>
<text x="-10" y="269" text-anchor="end" font-family="Arial, sans-serif" font-size="12" fill="#666">40.0%</text>
<line x1="-5" y1="264" x2="0" y2="264" stroke="#ccc" stroke-width="1"/>
<text x="-10" y="181" text-anchor="end" font-family="Arial, sans-serif" font-size="12" fill="#666">60.0%</text>
<line x1="-5" y1="176" x2="0" y2="176" stroke="#ccc" stroke-width="1"/>
<text x="-10" y="93" text-anchor="end" font-family="Arial, sans-serif" font-size="12" fill="#666">80.0%</text>
<line x1="-5" y1="88" x2="0" y2="88" stroke="#ccc" stroke-width="1"/>
<text x="-10" y="5" text-anchor="end" font-family="Arial, sans-serif" font-size="12" fill="#666">100.0%</text>
<line x1="-5" y1="0" x2="0" y2="0" stroke="#ccc" stroke-width="1"/>
<text x="0" y="460" text-anchor="middle" font-family="Arial, sans-serif" font-size="10" fill="#666">0.0h</text>
<text x="104" y="460" text-anchor="middle" font-family="Arial, sans-serif" font-size="10" fill="#666">0.6h</text>
<text x="208" y="460" text-anchor="middle" font-family="Arial, sans-serif" font-size="10" fill="#666">1.2h</text>
<text x="312" y="460" text-anchor="middle" font-family="Arial, sans-serif" font-size="10" fill="#666">1.8h</text>
<text x="416" y="460" text-anchor="middle" font-family="Arial, sans-serif" font-size="10" fill="#666">2.4h</text>
<text x="520" y="460" text-anchor="middle" font-family="Arial, sans-serif" font-size="10" fill="#666">3.0h</text>
<text x="624" y="460" text-anchor="middle" font-family="Arial, sans-serif" font-size="10" fill="#666">3.6h</text>
<text x="728" y="460" text-anchor="middle" font-family="Arial, sans-serif" font-size="10" fill="#666">4.3h</text>
<text x="832" y="460" text-anchor="middle" font-family="Arial, sans-serif" font-size="10" fill="#666">4.9h</text>
<text x="936" y="460" text-anchor="middle" font-family="Arial, sans-serif" font-size="10" fill="#666">5.5h</text>
<text x="1040" y="460" text-anchor="middle" font-family="Arial, sans-serif" font-size="10" fill="#666">6.1h</text>
<polyline points="0,440 1,440 12,440 14,440 26,440 28,440 33,440 34,440 47,440 55,440 56,346 58,440 61,440 102,421 107,389 107,257 117,440 118,313 193,440 233,440 249,440 251,440 254,440 289,440 291,440 315,440 318,440 319,440 328,440 364,440 366,440 378,440 483,356 484,362 569,440 601,440 604,440 605,440 614,440 617,440 643,179 685,343 702,294 720,0 839,440 842,440 846,440 860,440 990,263 1040,425 " fill="none" stroke="#9B59B6" stroke-width="3"/>
<circle cx="0" cy="440" r="4" fill="#9B59B6"/>
<circle cx="12" cy="440" r="4" fill="#9B59B6"/>
<circle cx="26" cy="440" r="4" fill="#9B59B6"/>
<circle cx="33" cy="440" r="4" fill="#9B59B6"/>
<circle cx="47" cy="440" r="4" fill="#9B59B6"/>
<circle cx="56" cy="346" r="4" fill="#9B59B6"/>
<circle cx="61" cy="440" r="4" fill="#9B59B6"/>
<circle cx="107" cy="389" r="4" fill="#9B59B6"/>
<circle cx="117" cy="440" r="4" fill="#9B59B6"/>
<circle cx="193" cy="440" r="4" fill="#9B59B6"/>
<circle cx="249" cy="440" r="4" fill="#9B59B6"/>
<circle cx="254" cy="440" r="4" fill="#9B59B6"/>
<circle cx="291" cy="440" r="4" fill="#9B59B6"/>
<circle cx="318" cy="440" r="4" fill="#9B59B6"/>
<circle cx="328" cy="440" r="4" fill="#9B59B6"/>
<circle cx="366" cy="440" r="4" fill="#9B59B6"/>
<circle cx="483" cy="356" r="4" fill="#9B59B6"/>
<circle cx="569" cy="440" r="4" fill="#9B59B6"/>
<circle cx="604" cy="440" r="4" fill="#9B59B6"/>
<circle cx="614" cy="440" r="4" fill="#9B59B6"/>
<circle cx="643" cy="179" r="4" fill="#9B59B6"/>
<circle cx="702" cy="294" r="4" fill="#9B59B6"/>
<circle cx="839" cy="440" r="4" fill="#9B59B6"/>
<circle cx="846" cy="440" r="4" fill="#9B59B6"/>
<circle cx="990" cy="263" r="4" fill="#9B59B6"/>
<circle cx="1040" cy="425" r="4" fill="#9B59B6"/>
</g>
</svg>