<svg xmlns="http://www.w3.org/2000/svg" width="1200" height="700">
<rect width="100%" height="100%" fill="white"/>
<text x="600" y="30" text-anchor="middle" font-family="Arial, sans-serif" font-size="24" font-weight="bold" fill="black">Cumulative Modified Files Over Time - lessgo</text>
<g transform="translate(80,130)">
<line x1="0" y1="440" x2="1040" y2="440" stroke="#333" stroke-width="2"/>
<line x1="0" y1="0" x2="0" y2="440" stroke="#333" stroke-width="2"/>
<text x="-10" y="445" text-anchor="end" font-family="Arial, sans-serif" font-size="12" fill="#666">0</text>
<line x1="-5" y1="440" x2="0" y2="440" stroke="#ccc" stroke-width="1"/>
<text x="-10" y="357" text-anchor="end" font-family="Arial, sans-serif" font-size="12" fill="#666">29</text>
<line x1="-5" y1="352" x2="0" y2="352" stroke="#ccc" stroke-width="1"/>
<text x="-10" y="269" text-anchor="end" font-family="Arial, sans-serif" font-size="12" fill="#666">59</text>
<line x1="-5" y1="264" x2="0" y2="264" stroke="#ccc" stroke-width="1"/>
<text x="-10" y="181" text-anchor="end" font-family="Arial, sans-serif" font-size="12" fill="#666">89</text>
<line x1="-5" y1="176" x2="0" y2="176" stroke="#ccc" stroke-width="1"/>
<text x="-10" y="93" text-anchor="end" font-family="Arial, sans-serif" font-size="12" fill="#666">119</text>
<line x1="-5" y1="88" x2="0" y2="88" stroke="#ccc" stroke-width="1"/>
<text x="-10" y="5" text-anchor="end" font-family="Arial, sans-serif" font-size="12" fill="#666">149</text>
<line x1="-5" y1="0" x2="0" y2="0" stroke="#ccc" stroke-width="1"/>
<text x="0" y="460" text-anchor="middle" font-family="Arial, sans-serif" font-size="10" fill="#666">0.0h</text>
<text x="104" y="460" text-anchor="middle" font-family="Arial, sans-serif" font-size="10" fill="#666">0.6h</text>
<text x="208" y="460" text-anchor="middle" font-family="Arial, sans-serif" font-size="10" fill="#666">1.2h</text>
<text x="312" y="460" text-anchor="middle" font-family="Arial, sans-serif" font-size="10" fill="#666">1.8h</text>
<text x="416" y="460" text-anchor="middle" font-family="Arial, sans-serif" font-size="10" fill="#666">2.4h</text>
<text x="520" y="460" text-anchor="middle" font-family="Arial, sans-serif" font-size="10" fill="#666">3.0h</text>
<text x="624" y="460" text-anchor="middle" font-family="Arial, sans-serif" font-size="10" fill="#666">3.6h</text>
<text x="728" y="460" text-anchor="middle" font-family="Arial, sans-serif" font-size="10" fill="#666">4.3h</text>
<text x="832" y="460" text-anchor="middle" font-family="Arial, sans-serif" font-size="10" fill="#666">4.9h</text>
<text x="936" y="460" text-anchor="middle" font-family="Arial, sans-serif" font-size="10" fill="#666">5.5h</text>
<text x="1040" y="460" text-anchor="middle" font-family="Arial, sans-serif" font-size="10" fill="#666">6.1h</text>
<polyline points="0,440 1,438 12,438 14,438 26,438 28,438 33,438 34,438 47,438 55,438 56,432 58,432 61,432 102,399 107,393 107,390 117,390 118,387 193,387 233,387 249,387 251,387 254,387 289,387 291,387 315,387 318,387 319,387 328,387 364,387 366,387 378,387 483,89 484,86 569,86 601,86 604,86 605,86 614,86 617,86 643,68 685,65 702,63 720,57 839,57 842,57 846,57 860,57 990,3 1040,0 " fill="none" stroke="#FF6B6B" stroke-width="3"/>
<circle cx="0" cy="440" r="4" fill="#FF6B6B"/>
<circle cx="12" cy="438" r="4" fill="#FF6B6B"/>
<circle cx="26" cy="438" r="4" fill="#FF6B6B"/>
<circle cx="33" cy="438" r="4" fill="#FF6B6B"/>
<circle cx="47" cy="438" r="4" fill="#FF6B6B"/>
<circle cx="56" cy="432" r="4" fill="#FF6B6B"/>
<circle cx="61" cy="432" r="4" fill="#FF6B6B"/>
<circle cx="107" cy="393" r="4" fill="#FF6B6B"/>
<circle cx="117" cy="390" r="4" fill="#FF6B6B"/>
<circle cx="193" cy="387" r="4" fill="#FF6B6B"/>
<circle cx="249" cy="387" r="4" fill="#FF6B6B"/>
<circle cx="254" cy="387" r="4" fill="#FF6B6B"/>
<circle cx="291" cy="387" r="4" fill="#FF6B6B"/>
<circle cx="318" cy="387" r="4" fill="#FF6B6B"/>
<circle cx="328" cy="387" r="4" fill="#FF6B6B"/>
<circle cx="366" cy="387" r="4" fill="#FF6B6B"/>
<circle cx="483" cy="89" r="4" fill="#FF6B6B"/>
<circle cx="569" cy="86" r="4" fill="#FF6B6B"/>
<circle cx="604" cy="86" r="4" fill="#FF6B6B"/>
<circle cx="614" cy="86" r="4" fill="#FF6B6B"/>
<circle cx="643" cy="68" r="4" fill="#FF6B6B"/>
<circle cx="702" cy="63" r="4" fill="#FF6B6B"/>
<circle cx="839" cy="57" r="4" fill="#FF6B6B"/>
<circle cx="846" cy="57" r="4" fill="#FF6B6B"/>
<circle cx="990" cy="3" r="4" fill="#FF6B6B"/>
<circle cx="1040" cy="0" r="4" fill="#FF6B6B"/>
</g>
</svg>