<svg xmlns="http://www.w3.org/2000/svg" width="1200" height="700">
<rect width="100%" height="100%" fill="white"/>
<text x="600" y="30" text-anchor="middle" font-family="Arial, sans-serif" font-size="24" font-weight="bold" fill="black">Cumulative Lines Over Time - lessgo</text>
<g transform="translate(80,130)">
<line x1="0" y1="440" x2="1040" y2="440" stroke="#333" stroke-width="2"/>
<line x1="0" y1="0" x2="0" y2="440" stroke="#333" stroke-width="2"/>
<text x="-10" y="445" text-anchor="end" font-family="Arial, sans-serif" font-size="12" fill="#666">0</text>
<line x1="-5" y1="440" x2="0" y2="440" stroke="#ccc" stroke-width="1"/>
<text x="-10" y="357" text-anchor="end" font-family="Arial, sans-serif" font-size="12" fill="#666">780</text>
<line x1="-5" y1="352" x2="0" y2="352" stroke="#ccc" stroke-width="1"/>
<text x="-10" y="269" text-anchor="end" font-family="Arial, sans-serif" font-size="12" fill="#666">1561</text>
<line x1="-5" y1="264" x2="0" y2="264" stroke="#ccc" stroke-width="1"/>
<text x="-10" y="181" text-anchor="end" font-family="Arial, sans-serif" font-size="12" fill="#666">2341</text>
<line x1="-5" y1="176" x2="0" y2="176" stroke="#ccc" stroke-width="1"/>
<text x="-10" y="93" text-anchor="end" font-family="Arial, sans-serif" font-size="12" fill="#666">3122</text>
<line x1="-5" y1="88" x2="0" y2="88" stroke="#ccc" stroke-width="1"/>
<text x="-10" y="5" text-anchor="end" font-family="Arial, sans-serif" font-size="12" fill="#666">3903</text>
<line x1="-5" y1="0" x2="0" y2="0" stroke="#ccc" stroke-width="1"/>
<text x="0" y="460" text-anchor="middle" font-family="Arial, sans-serif" font-size="10" fill="#666">0</text>
<text x="84" y="460" text-anchor="middle" font-family="Arial, sans-serif" font-size="10" fill="#666">4</text>
<text x="169" y="460" text-anchor="middle" font-family="Arial, sans-serif" font-size="10" fill="#666">8</text>
<text x="254" y="460" text-anchor="middle" font-family="Arial, sans-serif" font-size="10" fill="#666">12</text>
<text x="339" y="460" text-anchor="middle" font-family="Arial, sans-serif" font-size="10" fill="#666">16</text>
<text x="424" y="460" text-anchor="middle" font-family="Arial, sans-serif" font-size="10" fill="#666">20</text>
<text x="509" y="460" text-anchor="middle" font-family="Arial, sans-serif" font-size="10" fill="#666">24</text>
<text x="594" y="460" text-anchor="middle" font-family="Arial, sans-serif" font-size="10" fill="#666">28</text>
<text x="679" y="460" text-anchor="middle" font-family="Arial, sans-serif" font-size="10" fill="#666">32</text>
<text x="764" y="460" text-anchor="middle" font-family="Arial, sans-serif" font-size="10" fill="#666">36</text>
<text x="848" y="460" text-anchor="middle" font-family="Arial, sans-serif" font-size="10" fill="#666">40</text>
<text x="933" y="460" text-anchor="middle" font-family="Arial, sans-serif" font-size="10" fill="#666">44</text>
<text x="1018" y="460" text-anchor="middle" font-family="Arial, sans-serif" font-size="10" fill="#666">48</text>
<text x="1040" y="460" text-anchor="middle" font-family="Arial, sans-serif" font-size="10" fill="#666">49</text>
<polyline points="0,440 21,417 42,417 63,417 84,417 106,417 127,417 148,417 169,417 191,417 212,415 233,415 254,415 275,334 297,329 318,329 339,329 360,328 382,328 403,328 424,328 445,328 466,328 488,328 509,328 530,328 551,328 573,328 594,328 615,328 636,328 657,328 679,26 700,22 721,22 742,22 764,22 785,22 806,22 827,22 848,36 870,35 891,35 912,42 933,42 955,42 976,42 997,42 1018,4 1040,0 " fill="none" stroke="#50C878" stroke-width="3"/>
<circle cx="0" cy="440" r="4" fill="#50C878"/>
<circle cx="42" cy="417" r="4" fill="#50C878"/>
<circle cx="84" cy="417" r="4" fill="#50C878"/>
<circle cx="127" cy="417" r="4" fill="#50C878"/>
<circle cx="169" cy="417" r="4" fill="#50C878"/>
<circle cx="212" cy="415" r="4" fill="#50C878"/>
<circle cx="254" cy="415" r="4" fill="#50C878"/>
<circle cx="297" cy="329" r="4" fill="#50C878"/>
<circle cx="339" cy="329" r="4" fill="#50C878"/>
<circle cx="382" cy="328" r="4" fill="#50C878"/>
<circle cx="424" cy="328" r="4" fill="#50C878"/>
<circle cx="466" cy="328" r="4" fill="#50C878"/>
<circle cx="509" cy="328" r="4" fill="#50C878"/>
<circle cx="551" cy="328" r="4" fill="#50C878"/>
<circle cx="594" cy="328" r="4" fill="#50C878"/>
<circle cx="636" cy="328" r="4" fill="#50C878"/>
<circle cx="679" cy="26" r="4" fill="#50C878"/>
<circle cx="721" cy="22" r="4" fill="#50C878"/>
<circle cx="764" cy="22" r="4" fill="#50C878"/>
<circle cx="806" cy="22" r="4" fill="#50C878"/>
<circle cx="848" cy="36" r="4" fill="#50C878"/>
<circle cx="891" cy="35" r="4" fill="#50C878"/>
<circle cx="933" cy="42" r="4" fill="#50C878"/>
<circle cx="976" cy="42" r="4" fill="#50C878"/>
<circle cx="1018" cy="4" r="4" fill="#50C878"/>
<circle cx="1040" cy="0" r="4" fill="#50C878"/>
</g>
</svg>