<svg xmlns="http://www.w3.org/2000/svg" width="1200" height="700">
<rect width="100%" height="100%" fill="white"/>
<text x="600" y="30" text-anchor="middle" font-family="Arial, sans-serif" font-size="24" font-weight="bold" fill="black">Cumulative Lines Over Time - lessgo</text>
<g transform="translate(80,130)">
<line x1="0" y1="440" x2="1040" y2="440" stroke="#333" stroke-width="2"/>
<line x1="0" y1="0" x2="0" y2="440" stroke="#333" stroke-width="2"/>
<text x="-10" y="445" text-anchor="end" font-family="Arial, sans-serif" font-size="12" fill="#666">0</text>
<line x1="-5" y1="440" x2="0" y2="440" stroke="#ccc" stroke-width="1"/>
<text x="-10" y="357" text-anchor="end" font-family="Arial, sans-serif" font-size="12" fill="#666">780</text>
<line x1="-5" y1="352" x2="0" y2="352" stroke="#ccc" stroke-width="1"/>
<text x="-10" y="269" text-anchor="end" font-family="Arial, sans-serif" font-size="12" fill="#666">1561</text>
<line x1="-5" y1="264" x2="0" y2="264" stroke="#ccc" stroke-width="1"/>
<text x="-10" y="181" text-anchor="end" font-family="Arial, sans-serif" font-size="12" fill="#666">2341</text>
<line x1="-5" y1="176" x2="0" y2="176" stroke="#ccc" stroke-width="1"/>
<text x="-10" y="93" text-anchor="end" font-family="Arial, sans-serif" font-size="12" fill="#666">3122</text>
<line x1="-5" y1="88" x2="0" y2="88" stroke="#ccc" stroke-width="1"/>
<text x="-10" y="5" text-anchor="end" font-family="Arial, sans-serif" font-size="12" fill="#666">3903</text>
<line x1="-5" y1="0" x2="0" y2="0" stroke="#ccc" stroke-width="1"/>
<text x="0" y="460" text-anchor="middle" font-family="Arial, sans-serif" font-size="10" fill="#666">0.0h</text>
<text x="104" y="460" text-anchor="middle" font-family="Arial, sans-serif" font-size="10" fill="#666">0.6h</text>
<text x="208" y="460" text-anchor="middle" font-family="Arial, sans-serif" font-size="10" fill="#666">1.2h</text>
<text x="312" y="460" text-anchor="middle" font-family="Arial, sans-serif" font-size="10" fill="#666">1.8h</text>
<text x="416" y="460" text-anchor="middle" font-family="Arial, sans-serif" font-size="10" fill="#666">2.4h</text>
<text x="520" y="460" text-anchor="middle" font-family="Arial, sans-serif" font-size="10" fill="#666">3.0h</text>
<text x="624" y="460" text-anchor="middle" font-family="Arial, sans-serif" font-size="10" fill="#666">3.6h</text>
<text x="728" y="460" text-anchor="middle" font-family="Arial, sans-serif" font-size="10" fill="#666">4.3h</text>
<text x="832" y="460" text-anchor="middle" font-family="Arial, sans-serif" font-size="10" fill="#666">4.9h</text>
<text x="936" y="460" text-anchor="middle" font-family="Arial, sans-serif" font-size="10" fill="#666">5.5h</text>
<text x="1040" y="460" text-anchor="middle" font-family="Arial, sans-serif" font-size="10" fill="#666">6.1h</text>
<polyline points="0,440 1,417 12,417 14,417 26,417 28,417 33,417 34,417 47,417 55,417 56,415 58,415 61,415 102,334 107,329 107,329 117,329 118,328 193,328 233,328 249,328 251,328 254,328 289,328 291,328 315,328 318,328 319,328 328,328 364,328 366,328 378,328 483,26 484,22 569,22 601,22 604,22 605,22 614,22 617,22 643,36 685,35 702,35 720,42 839,42 842,42 846,42 860,42 990,4 1040,0 " fill="none" stroke="#50C878" stroke-width="3"/>
<circle cx="0" cy="440" r="4" fill="#50C878"/>
<circle cx="12" cy="417" r="4" fill="#50C878"/>
<circle cx="26" cy="417" r="4" fill="#50C878"/>
<circle cx="33" cy="417" r="4" fill="#50C878"/>
<circle cx="47" cy="417" r="4" fill="#50C878"/>
<circle cx="56" cy="415" r="4" fill="#50C878"/>
<circle cx="61" cy="415" r="4" fill="#50C878"/>
<circle cx="107" cy="329" r="4" fill="#50C878"/>
<circle cx="117" cy="329" r="4" fill="#50C878"/>
<circle cx="193" cy="328" r="4" fill="#50C878"/>
<circle cx="249" cy="328" r="4" fill="#50C878"/>
<circle cx="254" cy="328" r="4" fill="#50C878"/>
<circle cx="291" cy="328" r="4" fill="#50C878"/>
<circle cx="318" cy="328" r="4" fill="#50C878"/>
<circle cx="328" cy="328" r="4" fill="#50C878"/>
<circle cx="366" cy="328" r="4" fill="#50C878"/>
<circle cx="483" cy="26" r="4" fill="#50C878"/>
<circle cx="569" cy="22" r="4" fill="#50C878"/>
<circle cx="604" cy="22" r="4" fill="#50C878"/>
<circle cx="614" cy="22" r="4" fill="#50C878"/>
<circle cx="643" cy="36" r="4" fill="#50C878"/>
<circle cx="702" cy="35" r="4" fill="#50C878"/>
<circle cx="839" cy="42" r="4" fill="#50C878"/>
<circle cx="846" cy="42" r="4" fill="#50C878"/>
<circle cx="990" cy="4" r="4" fill="#50C878"/>
<circle cx="1040" cy="0" r="4" fill="#50C878"/>
</g>
</svg>