<svg xmlns="http://www.w3.org/2000/svg" width="1200" height="700">
<rect width="100%" height="100%" fill="white"/>
<text x="600" y="30" text-anchor="middle" font-family="Arial, sans-serif" font-size="24" font-weight="bold" fill="black">Human Messages Over Time - lessgo</text>
<g transform="translate(80,130)">
<line x1="0" y1="440" x2="1040" y2="440" stroke="#333" stroke-width="2"/>
<line x1="0" y1="0" x2="0" y2="440" stroke="#333" stroke-width="2"/>
<text x="-10" y="445" text-anchor="end" font-family="Arial, sans-serif" font-size="12" fill="#666">0</text>
<text x="-10" y="357" text-anchor="end" font-family="Arial, sans-serif" font-size="12" fill="#666">2</text>
<text x="-10" y="269" text-anchor="end" font-family="Arial, sans-serif" font-size="12" fill="#666">5</text>
<text x="-10" y="181" text-anchor="end" font-family="Arial, sans-serif" font-size="12" fill="#666">7</text>
<text x="-10" y="93" text-anchor="end" font-family="Arial, sans-serif" font-size="12" fill="#666">10</text>
<text x="-10" y="5" text-anchor="end" font-family="Arial, sans-serif" font-size="12" fill="#666">13</text>
<text x="0" y="460" text-anchor="middle" font-family="Arial, sans-serif" font-size="12" fill="#666">11/17 09:10</text>
<text x="208" y="460" text-anchor="middle" font-family="Arial, sans-serif" font-size="12" fill="#666">11/17 10:10</text>
<text x="416" y="460" text-anchor="middle" font-family="Arial, sans-serif" font-size="12" fill="#666">11/17 11:10</text>
<text x="624" y="460" text-anchor="middle" font-family="Arial, sans-serif" font-size="12" fill="#666">11/17 12:10</text>
<text x="832" y="460" text-anchor="middle" font-family="Arial, sans-serif" font-size="12" fill="#666">11/17 13:10</text>
<text x="1040" y="460" text-anchor="middle" font-family="Arial, sans-serif" font-size="12" fill="#666">11/17 14:10</text>
<polyline points="0,339 38,407 40,407 41,407 42,305 74,407 76,373 104,271 142,339 162,373 181,407 184,204 220,339 239,305 267,407 287,407 321,407 345,136 380,373 404,305 436,373 457,407 468,0 502,373 513,102 545,407 559,339 585,237 611,271 637,237 658,204 688,339 752,407 810,407 880,407 882,339 910,339 940,407 944,34 1009,305 1032,407 1034,407 1038,407 1040,373 " fill="none" stroke="#2563eb" stroke-width="3"/>
<circle cx="0" cy="339" r="4" fill="#2563eb"/>
<circle cx="38" cy="407" r="4" fill="#2563eb"/>
<circle cx="40" cy="407" r="4" fill="#2563eb"/>
<circle cx="41" cy="407" r="4" fill="#2563eb"/>
<circle cx="42" cy="305" r="4" fill="#2563eb"/>
<circle cx="74" cy="407" r="4" fill="#2563eb"/>
<circle cx="76" cy="373" r="4" fill="#2563eb"/>
<circle cx="104" cy="271" r="4" fill="#2563eb"/>
<circle cx="142" cy="339" r="4" fill="#2563eb"/>
<circle cx="162" cy="373" r="4" fill="#2563eb"/>
<circle cx="181" cy="407" r="4" fill="#2563eb"/>
<circle cx="184" cy="204" r="4" fill="#2563eb"/>
<circle cx="220" cy="339" r="4" fill="#2563eb"/>
<circle cx="239" cy="305" r="4" fill="#2563eb"/>
<circle cx="267" cy="407" r="4" fill="#2563eb"/>
<circle cx="287" cy="407" r="4" fill="#2563eb"/>
<circle cx="321" cy="407" r="4" fill="#2563eb"/>
<circle cx="345" cy="136" r="4" fill="#2563eb"/>
<circle cx="380" cy="373" r="4" fill="#2563eb"/>
<circle cx="404" cy="305" r="4" fill="#2563eb"/>
<circle cx="436" cy="373" r="4" fill="#2563eb"/>
<circle cx="457" cy="407" r="4" fill="#2563eb"/>
<circle cx="468" cy="0" r="4" fill="#2563eb"/>
<circle cx="502" cy="373" r="4" fill="#2563eb"/>
<circle cx="513" cy="102" r="4" fill="#2563eb"/>
<circle cx="545" cy="407" r="4" fill="#2563eb"/>
<circle cx="559" cy="339" r="4" fill="#2563eb"/>
<circle cx="585" cy="237" r="4" fill="#2563eb"/>
<circle cx="611" cy="271" r="4" fill="#2563eb"/>
<circle cx="637" cy="237" r="4" fill="#2563eb"/>
<circle cx="658" cy="204" r="4" fill="#2563eb"/>
<circle cx="688" cy="339" r="4" fill="#2563eb"/>
<circle cx="752" cy="407" r="4" fill="#2563eb"/>
<circle cx="810" cy="407" r="4" fill="#2563eb"/>
<circle cx="880" cy="407" r="4" fill="#2563eb"/>
<circle cx="882" cy="339" r="4" fill="#2563eb"/>
<circle cx="910" cy="339" r="4" fill="#2563eb"/>
<circle cx="940" cy="407" r="4" fill="#2563eb"/>
<circle cx="944" cy="34" r="4" fill="#2563eb"/>
<circle cx="1009" cy="305" r="4" fill="#2563eb"/>
<circle cx="1032" cy="407" r="4" fill="#2563eb"/>
<circle cx="1034" cy="407" r="4" fill="#2563eb"/>
<circle cx="1038" cy="407" r="4" fill="#2563eb"/>
<circle cx="1040" cy="373" r="4" fill="#2563eb"/>
</g>
</svg>