<svg xmlns="http://www.w3.org/2000/svg" width="1200" height="700">
<rect width="100%" height="100%" fill="white"/>
<text x="600" y="30" text-anchor="middle" font-family="Arial, sans-serif" font-size="24" font-weight="bold" fill="black">Code Churn Over Time - vuego</text>
<g transform="translate(80,130)">
<line x1="0" y1="440" x2="1040" y2="440" stroke="#333" stroke-width="2"/>
<line x1="0" y1="0" x2="0" y2="440" stroke="#333" stroke-width="2"/>
<text x="-10" y="445" text-anchor="end" font-family="Arial, sans-serif" font-size="12" fill="#666">0.0%</text>
<line x1="-5" y1="440" x2="0" y2="440" stroke="#ccc" stroke-width="1"/>
<text x="-10" y="357" text-anchor="end" font-family="Arial, sans-serif" font-size="12" fill="#666">15.5%</text>
<line x1="-5" y1="352" x2="0" y2="352" stroke="#ccc" stroke-width="1"/>
<text x="-10" y="269" text-anchor="end" font-family="Arial, sans-serif" font-size="12" fill="#666">30.9%</text>
<line x1="-5" y1="264" x2="0" y2="264" stroke="#ccc" stroke-width="1"/>
<text x="-10" y="181" text-anchor="end" font-family="Arial, sans-serif" font-size="12" fill="#666">46.4%</text>
<line x1="-5" y1="176" x2="0" y2="176" stroke="#ccc" stroke-width="1"/>
<text x="-10" y="93" text-anchor="end" font-family="Arial, sans-serif" font-size="12" fill="#666">61.8%</text>
<line x1="-5" y1="88" x2="0" y2="88" stroke="#ccc" stroke-width="1"/>
<text x="-10" y="5" text-anchor="end" font-family="Arial, sans-serif" font-size="12" fill="#666">77.3%</text>
<line x1="-5" y1="0" x2="0" y2="0" stroke="#ccc" stroke-width="1"/>
<text x="0" y="460" text-anchor="middle" font-family="Arial, sans-serif" font-size="10" fill="#666">0</text>
<text x="104" y="460" text-anchor="middle" font-family="Arial, sans-serif" font-size="10" fill="#666">6</text>
<text x="208" y="460" text-anchor="middle" font-family="Arial, sans-serif" font-size="10" fill="#666">12</text>
<text x="312" y="460" text-anchor="middle" font-family="Arial, sans-serif" font-size="10" fill="#666">18</text>
<text x="416" y="460" text-anchor="middle" font-family="Arial, sans-serif" font-size="10" fill="#666">24</text>
<text x="520" y="460" text-anchor="middle" font-family="Arial, sans-serif" font-size="10" fill="#666">30</text>
<text x="624" y="460" text-anchor="middle" font-family="Arial, sans-serif" font-size="10" fill="#666">36</text>
<text x="728" y="460" text-anchor="middle" font-family="Arial, sans-serif" font-size="10" fill="#666">42</text>
<text x="832" y="460" text-anchor="middle" font-family="Arial, sans-serif" font-size="10" fill="#666">48</text>
<text x="936" y="460" text-anchor="middle" font-family="Arial, sans-serif" font-size="10" fill="#666">54</text>
<text x="1040" y="460" text-anchor="middle" font-family="Arial, sans-serif" font-size="10" fill="#666">60</text>
<polyline points="0,440 17,197 34,389 52,400 69,328 86,431 104,440 121,16 138,440 156,440 173,300 190,400 208,362 225,440 242,440 260,423 277,440 294,156 312,414 329,330 346,432 364,162 381,115 398,354 416,306 433,347 450,440 468,324 485,206 502,327 520,440 537,440 554,0 572,436 589,440 606,395 624,243 641,440 658,356 676,156 693,405 710,298 728,355 745,415 762,379 780,440 797,391 814,422 832,156 849,440 866,428 884,426 901,440 918,156 936,426 953,359 970,251 988,414 1005,440 1022,440 1040,440 " fill="none" stroke="#9B59B6" stroke-width="3"/>
<circle cx="0" cy="440" r="4" fill="#9B59B6"/>
<circle cx="52" cy="400" r="4" fill="#9B59B6"/>
<circle cx="104" cy="440" r="4" fill="#9B59B6"/>
<circle cx="156" cy="440" r="4" fill="#9B59B6"/>
<circle cx="208" cy="362" r="4" fill="#9B59B6"/>
<circle cx="260" cy="423" r="4" fill="#9B59B6"/>
<circle cx="312" cy="414" r="4" fill="#9B59B6"/>
<circle cx="364" cy="162" r="4" fill="#9B59B6"/>
<circle cx="416" cy="306" r="4" fill="#9B59B6"/>
<circle cx="468" cy="324" r="4" fill="#9B59B6"/>
<circle cx="520" cy="440" r="4" fill="#9B59B6"/>
<circle cx="572" cy="436" r="4" fill="#9B59B6"/>
<circle cx="624" cy="243" r="4" fill="#9B59B6"/>
<circle cx="676" cy="156" r="4" fill="#9B59B6"/>
<circle cx="728" cy="355" r="4" fill="#9B59B6"/>
<circle cx="780" cy="440" r="4" fill="#9B59B6"/>
<circle cx="832" cy="156" r="4" fill="#9B59B6"/>
<circle cx="884" cy="426" r="4" fill="#9B59B6"/>
<circle cx="936" cy="426" r="4" fill="#9B59B6"/>
<circle cx="988" cy="414" r="4" fill="#9B59B6"/>
<circle cx="1040" cy="440" r="4" fill="#9B59B6"/>
</g>
</svg>