<svg xmlns="http://www.w3.org/2000/svg" width="1200" height="700">
<rect width="100%" height="100%" fill="white"/>
<text x="600" y="30" text-anchor="middle" font-family="Arial, sans-serif" font-size="24" font-weight="bold" fill="black">Code Churn Over Time - vuego</text>
<g transform="translate(80,130)">
<line x1="0" y1="440" x2="1040" y2="440" stroke="#333" stroke-width="2"/>
<line x1="0" y1="0" x2="0" y2="440" stroke="#333" stroke-width="2"/>
<text x="-10" y="445" text-anchor="end" font-family="Arial, sans-serif" font-size="12" fill="#666">0.0%</text>
<line x1="-5" y1="440" x2="0" y2="440" stroke="#ccc" stroke-width="1"/>
<text x="-10" y="357" text-anchor="end" font-family="Arial, sans-serif" font-size="12" fill="#666">15.5%</text>
<line x1="-5" y1="352" x2="0" y2="352" stroke="#ccc" stroke-width="1"/>
<text x="-10" y="269" text-anchor="end" font-family="Arial, sans-serif" font-size="12" fill="#666">30.9%</text>
<line x1="-5" y1="264" x2="0" y2="264" stroke="#ccc" stroke-width="1"/>
<text x="-10" y="181" text-anchor="end" font-family="Arial, sans-serif" font-size="12" fill="#666">46.4%</text>
<line x1="-5" y1="176" x2="0" y2="176" stroke="#ccc" stroke-width="1"/>
<text x="-10" y="93" text-anchor="end" font-family="Arial, sans-serif" font-size="12" fill="#666">61.8%</text>
<line x1="-5" y1="88" x2="0" y2="88" stroke="#ccc" stroke-width="1"/>
<text x="-10" y="5" text-anchor="end" font-family="Arial, sans-serif" font-size="12" fill="#666">77.3%</text>
<line x1="-5" y1="0" x2="0" y2="0" stroke="#ccc" stroke-width="1"/>
<text x="0" y="460" text-anchor="middle" font-family="Arial, sans-serif" font-size="10" fill="#666">0.0h</text>
<text x="104" y="460" text-anchor="middle" font-family="Arial, sans-serif" font-size="10" fill="#666">10.3h</text>
<text x="208" y="460" text-anchor="middle" font-family="Arial, sans-serif" font-size="10" fill="#666">20.5h</text>
<text x="312" y="460" text-anchor="middle" font-family="Arial, sans-serif" font-size="10" fill="#666">1.3d</text>
<text x="416" y="460" text-anchor="middle" font-family="Arial, sans-serif" font-size="10" fill="#666">1.7d</text>
<text x="520" y="460" text-anchor="middle" font-family="Arial, sans-serif" font-size="10" fill="#666">2.1d</text>
<text x="624" y="460" text-anchor="middle" font-family="Arial, sans-serif" font-size="10" fill="#666">2.6d</text>
<text x="728" y="460" text-anchor="middle" font-family="Arial, sans-serif" font-size="10" fill="#666">3.0d</text>
<text x="832" y="460" text-anchor="middle" font-family="Arial, sans-serif" font-size="10" fill="#666">3.4d</text>
<text x="936" y="460" text-anchor="middle" font-family="Arial, sans-serif" font-size="10" fill="#666">3.9d</text>
<text x="1040" y="460" text-anchor="middle" font-family="Arial, sans-serif" font-size="10" fill="#666">4.3d</text>
<polyline points="0,440 498,197 523,389 525,400 531,328 532,431 532,440 537,16 538,440 538,440 642,300 753,400 754,362 754,440 755,440 755,423 755,440 755,156 764,414 777,330 785,432 786,162 787,115 796,354 802,306 807,347 811,440 813,324 825,206 829,327 918,440 931,440 931,0 931,436 931,440 941,395 943,243 946,440 946,356 947,156 947,405 947,298 951,355 952,415 955,379 955,440 958,391 958,422 959,156 962,440 974,428 982,426 985,440 989,156 990,426 990,359 1032,251 1035,414 1037,440 1039,440 1040,440 " fill="none" stroke="#9B59B6" stroke-width="3"/>
<circle cx="0" cy="440" r="4" fill="#9B59B6"/>
<circle cx="525" cy="400" r="4" fill="#9B59B6"/>
<circle cx="532" cy="440" r="4" fill="#9B59B6"/>
<circle cx="538" cy="440" r="4" fill="#9B59B6"/>
<circle cx="754" cy="362" r="4" fill="#9B59B6"/>
<circle cx="755" cy="423" r="4" fill="#9B59B6"/>
<circle cx="764" cy="414" r="4" fill="#9B59B6"/>
<circle cx="786" cy="162" r="4" fill="#9B59B6"/>
<circle cx="802" cy="306" r="4" fill="#9B59B6"/>
<circle cx="813" cy="324" r="4" fill="#9B59B6"/>
<circle cx="918" cy="440" r="4" fill="#9B59B6"/>
<circle cx="931" cy="436" r="4" fill="#9B59B6"/>
<circle cx="943" cy="243" r="4" fill="#9B59B6"/>
<circle cx="947" cy="156" r="4" fill="#9B59B6"/>
<circle cx="951" cy="355" r="4" fill="#9B59B6"/>
<circle cx="955" cy="440" r="4" fill="#9B59B6"/>
<circle cx="959" cy="156" r="4" fill="#9B59B6"/>
<circle cx="982" cy="426" r="4" fill="#9B59B6"/>
<circle cx="990" cy="426" r="4" fill="#9B59B6"/>
<circle cx="1035" cy="414" r="4" fill="#9B59B6"/>
<circle cx="1040" cy="440" r="4" fill="#9B59B6"/>
</g>
</svg>