<svg xmlns="http://www.w3.org/2000/svg" width="1200" height="700">
<rect width="100%" height="100%" fill="white"/>
<text x="600" y="30" text-anchor="middle" font-family="Arial, sans-serif" font-size="24" font-weight="bold" fill="black">Cumulative Files Over Time - vuego</text>
<g transform="translate(80,130)">
<line x1="0" y1="440" x2="1040" y2="440" stroke="#333" stroke-width="2"/>
<line x1="0" y1="0" x2="0" y2="440" stroke="#333" stroke-width="2"/>
<text x="-10" y="445" text-anchor="end" font-family="Arial, sans-serif" font-size="12" fill="#666">0</text>
<line x1="-5" y1="440" x2="0" y2="440" stroke="#ccc" stroke-width="1"/>
<text x="-10" y="357" text-anchor="end" font-family="Arial, sans-serif" font-size="12" fill="#666">33</text>
<line x1="-5" y1="352" x2="0" y2="352" stroke="#ccc" stroke-width="1"/>
<text x="-10" y="269" text-anchor="end" font-family="Arial, sans-serif" font-size="12" fill="#666">67</text>
<line x1="-5" y1="264" x2="0" y2="264" stroke="#ccc" stroke-width="1"/>
<text x="-10" y="181" text-anchor="end" font-family="Arial, sans-serif" font-size="12" fill="#666">100</text>
<line x1="-5" y1="176" x2="0" y2="176" stroke="#ccc" stroke-width="1"/>
<text x="-10" y="93" text-anchor="end" font-family="Arial, sans-serif" font-size="12" fill="#666">134</text>
<line x1="-5" y1="88" x2="0" y2="88" stroke="#ccc" stroke-width="1"/>
<text x="-10" y="5" text-anchor="end" font-family="Arial, sans-serif" font-size="12" fill="#666">168</text>
<line x1="-5" y1="0" x2="0" y2="0" stroke="#ccc" stroke-width="1"/>
<text x="0" y="460" text-anchor="middle" font-family="Arial, sans-serif" font-size="10" fill="#666">0</text>
<text x="104" y="460" text-anchor="middle" font-family="Arial, sans-serif" font-size="10" fill="#666">6</text>
<text x="208" y="460" text-anchor="middle" font-family="Arial, sans-serif" font-size="10" fill="#666">12</text>
<text x="312" y="460" text-anchor="middle" font-family="Arial, sans-serif" font-size="10" fill="#666">18</text>
<text x="416" y="460" text-anchor="middle" font-family="Arial, sans-serif" font-size="10" fill="#666">24</text>
<text x="520" y="460" text-anchor="middle" font-family="Arial, sans-serif" font-size="10" fill="#666">30</text>
<text x="624" y="460" text-anchor="middle" font-family="Arial, sans-serif" font-size="10" fill="#666">36</text>
<text x="728" y="460" text-anchor="middle" font-family="Arial, sans-serif" font-size="10" fill="#666">42</text>
<text x="832" y="460" text-anchor="middle" font-family="Arial, sans-serif" font-size="10" fill="#666">48</text>
<text x="936" y="460" text-anchor="middle" font-family="Arial, sans-serif" font-size="10" fill="#666">54</text>
<text x="1040" y="460" text-anchor="middle" font-family="Arial, sans-serif" font-size="10" fill="#666">60</text>
<polyline points="0,336 17,310 34,294 52,286 69,260 86,257 104,257 121,262 138,249 156,247 173,247 190,236 208,202 225,194 242,179 260,168 277,168 294,168 312,152 329,150 346,145 364,137 381,137 398,129 416,103 433,103 450,103 468,103 485,71 502,69 520,61 537,50 554,50 572,50 589,50 606,50 624,50 641,50 658,50 676,50 693,50 710,50 728,50 745,48 762,48 780,48 797,48 814,45 832,45 849,45 866,45 884,40 901,29 918,29 936,29 953,29 970,27 988,16 1005,11 1022,0 1040,0 " fill="none" stroke="#4A90E2" stroke-width="3"/>
<circle cx="0" cy="336" r="4" fill="#4A90E2"/>
<circle cx="52" cy="286" r="4" fill="#4A90E2"/>
<circle cx="104" cy="257" r="4" fill="#4A90E2"/>
<circle cx="156" cy="247" r="4" fill="#4A90E2"/>
<circle cx="208" cy="202" r="4" fill="#4A90E2"/>
<circle cx="260" cy="168" r="4" fill="#4A90E2"/>
<circle cx="312" cy="152" r="4" fill="#4A90E2"/>
<circle cx="364" cy="137" r="4" fill="#4A90E2"/>
<circle cx="416" cy="103" r="4" fill="#4A90E2"/>
<circle cx="468" cy="103" r="4" fill="#4A90E2"/>
<circle cx="520" cy="61" r="4" fill="#4A90E2"/>
<circle cx="572" cy="50" r="4" fill="#4A90E2"/>
<circle cx="624" cy="50" r="4" fill="#4A90E2"/>
<circle cx="676" cy="50" r="4" fill="#4A90E2"/>
<circle cx="728" cy="50" r="4" fill="#4A90E2"/>
<circle cx="780" cy="48" r="4" fill="#4A90E2"/>
<circle cx="832" cy="45" r="4" fill="#4A90E2"/>
<circle cx="884" cy="40" r="4" fill="#4A90E2"/>
<circle cx="936" cy="29" r="4" fill="#4A90E2"/>
<circle cx="988" cy="16" r="4" fill="#4A90E2"/>
<circle cx="1040" cy="0" r="4" fill="#4A90E2"/>
</g>
</svg>