<svg xmlns="http://www.w3.org/2000/svg" width="1200" height="700">
<rect width="100%" height="100%" fill="white"/>
<text x="600" y="30" text-anchor="middle" font-family="Arial, sans-serif" font-size="24" font-weight="bold" fill="black">Cumulative Lines Over Time - vuego</text>
<g transform="translate(80,130)">
<line x1="0" y1="440" x2="1040" y2="440" stroke="#333" stroke-width="2"/>
<line x1="0" y1="0" x2="0" y2="440" stroke="#333" stroke-width="2"/>
<text x="-10" y="445" text-anchor="end" font-family="Arial, sans-serif" font-size="12" fill="#666">0</text>
<line x1="-5" y1="440" x2="0" y2="440" stroke="#ccc" stroke-width="1"/>
<text x="-10" y="357" text-anchor="end" font-family="Arial, sans-serif" font-size="12" fill="#666">3759</text>
<line x1="-5" y1="352" x2="0" y2="352" stroke="#ccc" stroke-width="1"/>
<text x="-10" y="269" text-anchor="end" font-family="Arial, sans-serif" font-size="12" fill="#666">7519</text>
<line x1="-5" y1="264" x2="0" y2="264" stroke="#ccc" stroke-width="1"/>
<text x="-10" y="181" text-anchor="end" font-family="Arial, sans-serif" font-size="12" fill="#666">11279</text>
<line x1="-5" y1="176" x2="0" y2="176" stroke="#ccc" stroke-width="1"/>
<text x="-10" y="93" text-anchor="end" font-family="Arial, sans-serif" font-size="12" fill="#666">15039</text>
<line x1="-5" y1="88" x2="0" y2="88" stroke="#ccc" stroke-width="1"/>
<text x="-10" y="5" text-anchor="end" font-family="Arial, sans-serif" font-size="12" fill="#666">18799</text>
<line x1="-5" y1="0" x2="0" y2="0" stroke="#ccc" stroke-width="1"/>
<text x="0" y="460" text-anchor="middle" font-family="Arial, sans-serif" font-size="10" fill="#666">0</text>
<text x="104" y="460" text-anchor="middle" font-family="Arial, sans-serif" font-size="10" fill="#666">6</text>
<text x="208" y="460" text-anchor="middle" font-family="Arial, sans-serif" font-size="10" fill="#666">12</text>
<text x="312" y="460" text-anchor="middle" font-family="Arial, sans-serif" font-size="10" fill="#666">18</text>
<text x="416" y="460" text-anchor="middle" font-family="Arial, sans-serif" font-size="10" fill="#666">24</text>
<text x="520" y="460" text-anchor="middle" font-family="Arial, sans-serif" font-size="10" fill="#666">30</text>
<text x="624" y="460" text-anchor="middle" font-family="Arial, sans-serif" font-size="10" fill="#666">36</text>
<text x="728" y="460" text-anchor="middle" font-family="Arial, sans-serif" font-size="10" fill="#666">42</text>
<text x="832" y="460" text-anchor="middle" font-family="Arial, sans-serif" font-size="10" fill="#666">48</text>
<text x="936" y="460" text-anchor="middle" font-family="Arial, sans-serif" font-size="10" fill="#666">54</text>
<text x="1040" y="460" text-anchor="middle" font-family="Arial, sans-serif" font-size="10" fill="#666">60</text>
<polyline points="0,406 17,402 34,374 52,372 69,359 86,348 104,348 121,354 138,338 156,338 173,337 190,318 208,281 225,264 242,260 260,205 277,205 294,205 312,189 329,179 346,158 364,158 381,158 398,127 416,106 433,105 450,104 468,103 485,97 502,89 520,88 537,85 554,91 572,78 589,78 606,77 624,77 641,69 658,68 676,68 693,67 710,67 728,66 745,65 762,64 780,63 797,61 814,60 832,60 849,60 866,36 884,16 901,16 918,16 936,15 953,14 970,14 988,9 1005,5 1022,1 1040,0 " fill="none" stroke="#50C878" stroke-width="3"/>
<circle cx="0" cy="406" r="4" fill="#50C878"/>
<circle cx="52" cy="372" r="4" fill="#50C878"/>
<circle cx="104" cy="348" r="4" fill="#50C878"/>
<circle cx="156" cy="338" r="4" fill="#50C878"/>
<circle cx="208" cy="281" r="4" fill="#50C878"/>
<circle cx="260" cy="205" r="4" fill="#50C878"/>
<circle cx="312" cy="189" r="4" fill="#50C878"/>
<circle cx="364" cy="158" r="4" fill="#50C878"/>
<circle cx="416" cy="106" r="4" fill="#50C878"/>
<circle cx="468" cy="103" r="4" fill="#50C878"/>
<circle cx="520" cy="88" r="4" fill="#50C878"/>
<circle cx="572" cy="78" r="4" fill="#50C878"/>
<circle cx="624" cy="77" r="4" fill="#50C878"/>
<circle cx="676" cy="68" r="4" fill="#50C878"/>
<circle cx="728" cy="66" r="4" fill="#50C878"/>
<circle cx="780" cy="63" r="4" fill="#50C878"/>
<circle cx="832" cy="60" r="4" fill="#50C878"/>
<circle cx="884" cy="16" r="4" fill="#50C878"/>
<circle cx="936" cy="15" r="4" fill="#50C878"/>
<circle cx="988" cy="9" r="4" fill="#50C878"/>
<circle cx="1040" cy="0" r="4" fill="#50C878"/>
</g>
</svg>