<svg xmlns="http://www.w3.org/2000/svg" width="1200" height="700">
<rect width="100%" height="100%" fill="white"/>
<text x="600" y="30" text-anchor="middle" font-family="Arial, sans-serif" font-size="24" font-weight="bold" fill="black">Cumulative Lines Over Time - vuego</text>
<g transform="translate(80,130)">
<line x1="0" y1="440" x2="1040" y2="440" stroke="#333" stroke-width="2"/>
<line x1="0" y1="0" x2="0" y2="440" stroke="#333" stroke-width="2"/>
<text x="-10" y="445" text-anchor="end" font-family="Arial, sans-serif" font-size="12" fill="#666">0</text>
<line x1="-5" y1="440" x2="0" y2="440" stroke="#ccc" stroke-width="1"/>
<text x="-10" y="357" text-anchor="end" font-family="Arial, sans-serif" font-size="12" fill="#666">3759</text>
<line x1="-5" y1="352" x2="0" y2="352" stroke="#ccc" stroke-width="1"/>
<text x="-10" y="269" text-anchor="end" font-family="Arial, sans-serif" font-size="12" fill="#666">7519</text>
<line x1="-5" y1="264" x2="0" y2="264" stroke="#ccc" stroke-width="1"/>
<text x="-10" y="181" text-anchor="end" font-family="Arial, sans-serif" font-size="12" fill="#666">11279</text>
<line x1="-5" y1="176" x2="0" y2="176" stroke="#ccc" stroke-width="1"/>
<text x="-10" y="93" text-anchor="end" font-family="Arial, sans-serif" font-size="12" fill="#666">15039</text>
<line x1="-5" y1="88" x2="0" y2="88" stroke="#ccc" stroke-width="1"/>
<text x="-10" y="5" text-anchor="end" font-family="Arial, sans-serif" font-size="12" fill="#666">18799</text>
<line x1="-5" y1="0" x2="0" y2="0" stroke="#ccc" stroke-width="1"/>
<text x="0" y="460" text-anchor="middle" font-family="Arial, sans-serif" font-size="10" fill="#666">0.0h</text>
<text x="104" y="460" text-anchor="middle" font-family="Arial, sans-serif" font-size="10" fill="#666">10.3h</text>
<text x="208" y="460" text-anchor="middle" font-family="Arial, sans-serif" font-size="10" fill="#666">20.5h</text>
<text x="312" y="460" text-anchor="middle" font-family="Arial, sans-serif" font-size="10" fill="#666">1.3d</text>
<text x="416" y="460" text-anchor="middle" font-family="Arial, sans-serif" font-size="10" fill="#666">1.7d</text>
<text x="520" y="460" text-anchor="middle" font-family="Arial, sans-serif" font-size="10" fill="#666">2.1d</text>
<text x="624" y="460" text-anchor="middle" font-family="Arial, sans-serif" font-size="10" fill="#666">2.6d</text>
<text x="728" y="460" text-anchor="middle" font-family="Arial, sans-serif" font-size="10" fill="#666">3.0d</text>
<text x="832" y="460" text-anchor="middle" font-family="Arial, sans-serif" font-size="10" fill="#666">3.4d</text>
<text x="936" y="460" text-anchor="middle" font-family="Arial, sans-serif" font-size="10" fill="#666">3.9d</text>
<text x="1040" y="460" text-anchor="middle" font-family="Arial, sans-serif" font-size="10" fill="#666">4.3d</text>
<polyline points="0,406 498,402 523,374 525,372 531,359 532,348 532,348 537,354 538,338 538,338 642,337 753,318 754,281 754,264 755,260 755,205 755,205 755,205 764,189 777,179 785,158 786,158 787,158 796,127 802,106 807,105 811,104 813,103 825,97 829,89 918,88 931,85 931,91 931,78 931,78 941,77 943,77 946,69 946,68 947,68 947,67 947,67 951,66 952,65 955,64 955,63 958,61 958,60 959,60 962,60 974,36 982,16 985,16 989,16 990,15 990,14 1032,14 1035,9 1037,5 1039,1 1040,0 " fill="none" stroke="#50C878" stroke-width="3"/>
<circle cx="0" cy="406" r="4" fill="#50C878"/>
<circle cx="525" cy="372" r="4" fill="#50C878"/>
<circle cx="532" cy="348" r="4" fill="#50C878"/>
<circle cx="538" cy="338" r="4" fill="#50C878"/>
<circle cx="754" cy="281" r="4" fill="#50C878"/>
<circle cx="755" cy="205" r="4" fill="#50C878"/>
<circle cx="764" cy="189" r="4" fill="#50C878"/>
<circle cx="786" cy="158" r="4" fill="#50C878"/>
<circle cx="802" cy="106" r="4" fill="#50C878"/>
<circle cx="813" cy="103" r="4" fill="#50C878"/>
<circle cx="918" cy="88" r="4" fill="#50C878"/>
<circle cx="931" cy="78" r="4" fill="#50C878"/>
<circle cx="943" cy="77" r="4" fill="#50C878"/>
<circle cx="947" cy="68" r="4" fill="#50C878"/>
<circle cx="951" cy="66" r="4" fill="#50C878"/>
<circle cx="955" cy="63" r="4" fill="#50C878"/>
<circle cx="959" cy="60" r="4" fill="#50C878"/>
<circle cx="982" cy="16" r="4" fill="#50C878"/>
<circle cx="990" cy="15" r="4" fill="#50C878"/>
<circle cx="1035" cy="9" r="4" fill="#50C878"/>
<circle cx="1040" cy="0" r="4" fill="#50C878"/>
</g>
</svg>