<svg xmlns="http://www.w3.org/2000/svg" width="1200" height="700">
<rect width="100%" height="100%" fill="white"/>
<text x="600" y="30" text-anchor="middle" font-family="Arial, sans-serif" font-size="24" font-weight="bold" fill="black">Cumulative Modified Files Over Time - vuego</text>
<g transform="translate(80,130)">
<line x1="0" y1="440" x2="1040" y2="440" stroke="#333" stroke-width="2"/>
<line x1="0" y1="0" x2="0" y2="440" stroke="#333" stroke-width="2"/>
<text x="-10" y="445" text-anchor="end" font-family="Arial, sans-serif" font-size="12" fill="#666">0</text>
<line x1="-5" y1="440" x2="0" y2="440" stroke="#ccc" stroke-width="1"/>
<text x="-10" y="357" text-anchor="end" font-family="Arial, sans-serif" font-size="12" fill="#666">85</text>
<line x1="-5" y1="352" x2="0" y2="352" stroke="#ccc" stroke-width="1"/>
<text x="-10" y="269" text-anchor="end" font-family="Arial, sans-serif" font-size="12" fill="#666">171</text>
<line x1="-5" y1="264" x2="0" y2="264" stroke="#ccc" stroke-width="1"/>
<text x="-10" y="181" text-anchor="end" font-family="Arial, sans-serif" font-size="12" fill="#666">257</text>
<line x1="-5" y1="176" x2="0" y2="176" stroke="#ccc" stroke-width="1"/>
<text x="-10" y="93" text-anchor="end" font-family="Arial, sans-serif" font-size="12" fill="#666">343</text>
<line x1="-5" y1="88" x2="0" y2="88" stroke="#ccc" stroke-width="1"/>
<text x="-10" y="5" text-anchor="end" font-family="Arial, sans-serif" font-size="12" fill="#666">429</text>
<line x1="-5" y1="0" x2="0" y2="0" stroke="#ccc" stroke-width="1"/>
<text x="0" y="460" text-anchor="middle" font-family="Arial, sans-serif" font-size="10" fill="#666">0.0h</text>
<text x="104" y="460" text-anchor="middle" font-family="Arial, sans-serif" font-size="10" fill="#666">10.3h</text>
<text x="208" y="460" text-anchor="middle" font-family="Arial, sans-serif" font-size="10" fill="#666">20.5h</text>
<text x="312" y="460" text-anchor="middle" font-family="Arial, sans-serif" font-size="10" fill="#666">1.3d</text>
<text x="416" y="460" text-anchor="middle" font-family="Arial, sans-serif" font-size="10" fill="#666">1.7d</text>
<text x="520" y="460" text-anchor="middle" font-family="Arial, sans-serif" font-size="10" fill="#666">2.1d</text>
<text x="624" y="460" text-anchor="middle" font-family="Arial, sans-serif" font-size="10" fill="#666">2.6d</text>
<text x="728" y="460" text-anchor="middle" font-family="Arial, sans-serif" font-size="10" fill="#666">3.0d</text>
<text x="832" y="460" text-anchor="middle" font-family="Arial, sans-serif" font-size="10" fill="#666">3.4d</text>
<text x="936" y="460" text-anchor="middle" font-family="Arial, sans-serif" font-size="10" fill="#666">3.9d</text>
<text x="1040" y="460" text-anchor="middle" font-family="Arial, sans-serif" font-size="10" fill="#666">4.3d</text>
<polyline points="0,399 498,346 523,333 525,328 531,312 532,310 532,309 537,295 538,289 538,288 642,283 753,274 754,250 754,247 755,240 755,222 755,221 755,220 764,209 777,196 785,188 786,181 787,179 796,162 802,133 807,130 811,129 813,128 825,112 829,103 918,98 931,94 931,90 931,86 931,85 941,84 943,83 946,80 946,79 947,78 947,75 947,73 951,71 952,69 955,66 955,64 958,62 958,58 959,54 962,52 974,44 982,31 985,27 989,26 990,24 990,22 1032,17 1035,8 1037,6 1039,2 1040,0 " fill="none" stroke="#FF6B6B" stroke-width="3"/>
<circle cx="0" cy="399" r="4" fill="#FF6B6B"/>
<circle cx="525" cy="328" r="4" fill="#FF6B6B"/>
<circle cx="532" cy="309" r="4" fill="#FF6B6B"/>
<circle cx="538" cy="288" r="4" fill="#FF6B6B"/>
<circle cx="754" cy="250" r="4" fill="#FF6B6B"/>
<circle cx="755" cy="222" r="4" fill="#FF6B6B"/>
<circle cx="764" cy="209" r="4" fill="#FF6B6B"/>
<circle cx="786" cy="181" r="4" fill="#FF6B6B"/>
<circle cx="802" cy="133" r="4" fill="#FF6B6B"/>
<circle cx="813" cy="128" r="4" fill="#FF6B6B"/>
<circle cx="918" cy="98" r="4" fill="#FF6B6B"/>
<circle cx="931" cy="86" r="4" fill="#FF6B6B"/>
<circle cx="943" cy="83" r="4" fill="#FF6B6B"/>
<circle cx="947" cy="78" r="4" fill="#FF6B6B"/>
<circle cx="951" cy="71" r="4" fill="#FF6B6B"/>
<circle cx="955" cy="64" r="4" fill="#FF6B6B"/>
<circle cx="959" cy="54" r="4" fill="#FF6B6B"/>
<circle cx="982" cy="31" r="4" fill="#FF6B6B"/>
<circle cx="990" cy="24" r="4" fill="#FF6B6B"/>
<circle cx="1035" cy="8" r="4" fill="#FF6B6B"/>
<circle cx="1040" cy="0" r="4" fill="#FF6B6B"/>
</g>
</svg>