<svg xmlns="http://www.w3.org/2000/svg" width="1200" height="700">
<rect width="100%" height="100%" fill="white"/>
<text x="600" y="30" text-anchor="middle" font-family="Arial, sans-serif" font-size="24" font-weight="bold" fill="black">Cumulative Files Over Time - vuego</text>
<g transform="translate(80,130)">
<line x1="0" y1="440" x2="1040" y2="440" stroke="#333" stroke-width="2"/>
<line x1="0" y1="0" x2="0" y2="440" stroke="#333" stroke-width="2"/>
<text x="-10" y="445" text-anchor="end" font-family="Arial, sans-serif" font-size="12" fill="#666">0</text>
<line x1="-5" y1="440" x2="0" y2="440" stroke="#ccc" stroke-width="1"/>
<text x="-10" y="357" text-anchor="end" font-family="Arial, sans-serif" font-size="12" fill="#666">33</text>
<line x1="-5" y1="352" x2="0" y2="352" stroke="#ccc" stroke-width="1"/>
<text x="-10" y="269" text-anchor="end" font-family="Arial, sans-serif" font-size="12" fill="#666">67</text>
<line x1="-5" y1="264" x2="0" y2="264" stroke="#ccc" stroke-width="1"/>
<text x="-10" y="181" text-anchor="end" font-family="Arial, sans-serif" font-size="12" fill="#666">100</text>
<line x1="-5" y1="176" x2="0" y2="176" stroke="#ccc" stroke-width="1"/>
<text x="-10" y="93" text-anchor="end" font-family="Arial, sans-serif" font-size="12" fill="#666">134</text>
<line x1="-5" y1="88" x2="0" y2="88" stroke="#ccc" stroke-width="1"/>
<text x="-10" y="5" text-anchor="end" font-family="Arial, sans-serif" font-size="12" fill="#666">168</text>
<line x1="-5" y1="0" x2="0" y2="0" stroke="#ccc" stroke-width="1"/>
<text x="0" y="460" text-anchor="middle" font-family="Arial, sans-serif" font-size="10" fill="#666">0.0h</text>
<text x="104" y="460" text-anchor="middle" font-family="Arial, sans-serif" font-size="10" fill="#666">10.3h</text>
<text x="208" y="460" text-anchor="middle" font-family="Arial, sans-serif" font-size="10" fill="#666">20.5h</text>
<text x="312" y="460" text-anchor="middle" font-family="Arial, sans-serif" font-size="10" fill="#666">1.3d</text>
<text x="416" y="460" text-anchor="middle" font-family="Arial, sans-serif" font-size="10" fill="#666">1.7d</text>
<text x="520" y="460" text-anchor="middle" font-family="Arial, sans-serif" font-size="10" fill="#666">2.1d</text>
<text x="624" y="460" text-anchor="middle" font-family="Arial, sans-serif" font-size="10" fill="#666">2.6d</text>
<text x="728" y="460" text-anchor="middle" font-family="Arial, sans-serif" font-size="10" fill="#666">3.0d</text>
<text x="832" y="460" text-anchor="middle" font-family="Arial, sans-serif" font-size="10" fill="#666">3.4d</text>
<text x="936" y="460" text-anchor="middle" font-family="Arial, sans-serif" font-size="10" fill="#666">3.9d</text>
<text x="1040" y="460" text-anchor="middle" font-family="Arial, sans-serif" font-size="10" fill="#666">4.3d</text>
<polyline points="0,336 498,310 523,294 525,286 531,260 532,257 532,257 537,262 538,249 538,247 642,247 753,236 754,202 754,194 755,179 755,168 755,168 755,168 764,152 777,150 785,145 786,137 787,137 796,129 802,103 807,103 811,103 813,103 825,71 829,69 918,61 931,50 931,50 931,50 931,50 941,50 943,50 946,50 946,50 947,50 947,50 947,50 951,50 952,48 955,48 955,48 958,48 958,45 959,45 962,45 974,45 982,40 985,29 989,29 990,29 990,29 1032,27 1035,16 1037,11 1039,0 1040,0 " fill="none" stroke="#4A90E2" stroke-width="3"/>
<circle cx="0" cy="336" r="4" fill="#4A90E2"/>
<circle cx="525" cy="286" r="4" fill="#4A90E2"/>
<circle cx="532" cy="257" r="4" fill="#4A90E2"/>
<circle cx="538" cy="247" r="4" fill="#4A90E2"/>
<circle cx="754" cy="202" r="4" fill="#4A90E2"/>
<circle cx="755" cy="168" r="4" fill="#4A90E2"/>
<circle cx="764" cy="152" r="4" fill="#4A90E2"/>
<circle cx="786" cy="137" r="4" fill="#4A90E2"/>
<circle cx="802" cy="103" r="4" fill="#4A90E2"/>
<circle cx="813" cy="103" r="4" fill="#4A90E2"/>
<circle cx="918" cy="61" r="4" fill="#4A90E2"/>
<circle cx="931" cy="50" r="4" fill="#4A90E2"/>
<circle cx="943" cy="50" r="4" fill="#4A90E2"/>
<circle cx="947" cy="50" r="4" fill="#4A90E2"/>
<circle cx="951" cy="50" r="4" fill="#4A90E2"/>
<circle cx="955" cy="48" r="4" fill="#4A90E2"/>
<circle cx="959" cy="45" r="4" fill="#4A90E2"/>
<circle cx="982" cy="40" r="4" fill="#4A90E2"/>
<circle cx="990" cy="29" r="4" fill="#4A90E2"/>
<circle cx="1035" cy="16" r="4" fill="#4A90E2"/>
<circle cx="1040" cy="0" r="4" fill="#4A90E2"/>
</g>
</svg>