<svg xmlns="http://www.w3.org/2000/svg" width="1200" height="700">
<rect width="100%" height="100%" fill="white"/>
<text x="600" y="30" text-anchor="middle" font-family="Arial, sans-serif" font-size="24" font-weight="bold" fill="black">Human Messages Over Time - vuego</text>
<g transform="translate(80,130)">
<line x1="0" y1="440" x2="1040" y2="440" stroke="#333" stroke-width="2"/>
<line x1="0" y1="0" x2="0" y2="440" stroke="#333" stroke-width="2"/>
<text x="-10" y="445" text-anchor="end" font-family="Arial, sans-serif" font-size="12" fill="#666">0</text>
<text x="-10" y="357" text-anchor="end" font-family="Arial, sans-serif" font-size="12" fill="#666">3</text>
<text x="-10" y="269" text-anchor="end" font-family="Arial, sans-serif" font-size="12" fill="#666">7</text>
<text x="-10" y="181" text-anchor="end" font-family="Arial, sans-serif" font-size="12" fill="#666">10</text>
<text x="-10" y="93" text-anchor="end" font-family="Arial, sans-serif" font-size="12" fill="#666">14</text>
<text x="-10" y="5" text-anchor="end" font-family="Arial, sans-serif" font-size="12" fill="#666">18</text>
<text x="0" y="460" text-anchor="middle" font-family="Arial, sans-serif" font-size="12" fill="#666">11/13 18:58</text>
<text x="208" y="460" text-anchor="middle" font-family="Arial, sans-serif" font-size="12" fill="#666">11/14 04:58</text>
<text x="416" y="460" text-anchor="middle" font-family="Arial, sans-serif" font-size="12" fill="#666">11/14 15:58</text>
<text x="624" y="460" text-anchor="middle" font-family="Arial, sans-serif" font-size="12" fill="#666">11/15 02:58</text>
<text x="832" y="460" text-anchor="middle" font-family="Arial, sans-serif" font-size="12" fill="#666">11/15 13:58</text>
<text x="1040" y="460" text-anchor="middle" font-family="Arial, sans-serif" font-size="12" fill="#666">11/15 23:58</text>
<polyline points="0,416 2,392 2,416 43,367 50,294 58,416 60,416 62,392 65,172 72,367 73,416 74,416 79,392 80,392 82,416 83,392 84,416 282,416 460,25 476,392 477,172 490,343 499,343 503,416 504,392 509,416 510,416 515,318 521,367 538,416 544,392 547,343 552,367 556,196 560,343 562,318 564,392 566,392 567,343 569,343 572,416 572,392 575,416 577,392 580,220 586,294 589,343 593,392 598,416 600,367 601,269 603,220 606,318 609,367 612,343 615,294 619,147 627,98 635,367 636,343 799,318 805,343 809,269 827,367 835,0 848,367 853,318 856,367 859,367 860,367 862,392 866,392 868,416 868,318 873,416 873,245 875,294 880,416 882,343 889,392 892,220 898,392 911,392 912,392 913,392 914,392 916,343 922,318 924,392 924,343 926,367 933,416 935,416 935,416 946,416 1002,416 1002,294 1023,318 1028,392 1029,416 1030,343 1031,416 1032,392 1035,367 1038,416 1040,416 " fill="none" stroke="#2563eb" stroke-width="3"/>
<circle cx="0" cy="416" r="4" fill="#2563eb"/>
<circle cx="2" cy="392" r="4" fill="#2563eb"/>
<circle cx="2" cy="416" r="4" fill="#2563eb"/>
<circle cx="43" cy="367" r="4" fill="#2563eb"/>
<circle cx="50" cy="294" r="4" fill="#2563eb"/>
<circle cx="58" cy="416" r="4" fill="#2563eb"/>
<circle cx="60" cy="416" r="4" fill="#2563eb"/>
<circle cx="62" cy="392" r="4" fill="#2563eb"/>
<circle cx="65" cy="172" r="4" fill="#2563eb"/>
<circle cx="72" cy="367" r="4" fill="#2563eb"/>
<circle cx="73" cy="416" r="4" fill="#2563eb"/>
<circle cx="74" cy="416" r="4" fill="#2563eb"/>
<circle cx="79" cy="392" r="4" fill="#2563eb"/>
<circle cx="80" cy="392" r="4" fill="#2563eb"/>
<circle cx="82" cy="416" r="4" fill="#2563eb"/>
<circle cx="83" cy="392" r="4" fill="#2563eb"/>
<circle cx="84" cy="416" r="4" fill="#2563eb"/>
<circle cx="282" cy="416" r="4" fill="#2563eb"/>
<circle cx="460" cy="25" r="4" fill="#2563eb"/>
<circle cx="476" cy="392" r="4" fill="#2563eb"/>
<circle cx="477" cy="172" r="4" fill="#2563eb"/>
<circle cx="490" cy="343" r="4" fill="#2563eb"/>
<circle cx="499" cy="343" r="4" fill="#2563eb"/>
<circle cx="503" cy="416" r="4" fill="#2563eb"/>
<circle cx="504" cy="392" r="4" fill="#2563eb"/>
<circle cx="509" cy="416" r="4" fill="#2563eb"/>
<circle cx="510" cy="416" r="4" fill="#2563eb"/>
<circle cx="515" cy="318" r="4" fill="#2563eb"/>
<circle cx="521" cy="367" r="4" fill="#2563eb"/>
<circle cx="538" cy="416" r="4" fill="#2563eb"/>
<circle cx="544" cy="392" r="4" fill="#2563eb"/>
<circle cx="547" cy="343" r="4" fill="#2563eb"/>
<circle cx="552" cy="367" r="4" fill="#2563eb"/>
<circle cx="556" cy="196" r="4" fill="#2563eb"/>
<circle cx="560" cy="343" r="4" fill="#2563eb"/>
<circle cx="562" cy="318" r="4" fill="#2563eb"/>
<circle cx="564" cy="392" r="4" fill="#2563eb"/>
<circle cx="566" cy="392" r="4" fill="#2563eb"/>
<circle cx="567" cy="343" r="4" fill="#2563eb"/>
<circle cx="569" cy="343" r="4" fill="#2563eb"/>
<circle cx="572" cy="416" r="4" fill="#2563eb"/>
<circle cx="572" cy="392" r="4" fill="#2563eb"/>
<circle cx="575" cy="416" r="4" fill="#2563eb"/>
<circle cx="577" cy="392" r="4" fill="#2563eb"/>
<circle cx="580" cy="220" r="4" fill="#2563eb"/>
<circle cx="586" cy="294" r="4" fill="#2563eb"/>
<circle cx="589" cy="343" r="4" fill="#2563eb"/>
<circle cx="593" cy="392" r="4" fill="#2563eb"/>
<circle cx="598" cy="416" r="4" fill="#2563eb"/>
<circle cx="600" cy="367" r="4" fill="#2563eb"/>
<circle cx="601" cy="269" r="4" fill="#2563eb"/>
<circle cx="603" cy="220" r="4" fill="#2563eb"/>
<circle cx="606" cy="318" r="4" fill="#2563eb"/>
<circle cx="609" cy="367" r="4" fill="#2563eb"/>
<circle cx="612" cy="343" r="4" fill="#2563eb"/>
<circle cx="615" cy="294" r="4" fill="#2563eb"/>
<circle cx="619" cy="147" r="4" fill="#2563eb"/>
<circle cx="627" cy="98" r="4" fill="#2563eb"/>
<circle cx="635" cy="367" r="4" fill="#2563eb"/>
<circle cx="636" cy="343" r="4" fill="#2563eb"/>
<circle cx="799" cy="318" r="4" fill="#2563eb"/>
<circle cx="805" cy="343" r="4" fill="#2563eb"/>
<circle cx="809" cy="269" r="4" fill="#2563eb"/>
<circle cx="827" cy="367" r="4" fill="#2563eb"/>
<circle cx="835" cy="0" r="4" fill="#2563eb"/>
<circle cx="848" cy="367" r="4" fill="#2563eb"/>
<circle cx="853" cy="318" r="4" fill="#2563eb"/>
<circle cx="856" cy="367" r="4" fill="#2563eb"/>
<circle cx="859" cy="367" r="4" fill="#2563eb"/>
<circle cx="860" cy="367" r="4" fill="#2563eb"/>
<circle cx="862" cy="392" r="4" fill="#2563eb"/>
<circle cx="866" cy="392" r="4" fill="#2563eb"/>
<circle cx="868" cy="416" r="4" fill="#2563eb"/>
<circle cx="868" cy="318" r="4" fill="#2563eb"/>
<circle cx="873" cy="416" r="4" fill="#2563eb"/>
<circle cx="873" cy="245" r="4" fill="#2563eb"/>
<circle cx="875" cy="294" r="4" fill="#2563eb"/>
<circle cx="880" cy="416" r="4" fill="#2563eb"/>
<circle cx="882" cy="343" r="4" fill="#2563eb"/>
<circle cx="889" cy="392" r="4" fill="#2563eb"/>
<circle cx="892" cy="220" r="4" fill="#2563eb"/>
<circle cx="898" cy="392" r="4" fill="#2563eb"/>
<circle cx="911" cy="392" r="4" fill="#2563eb"/>
<circle cx="912" cy="392" r="4" fill="#2563eb"/>
<circle cx="913" cy="392" r="4" fill="#2563eb"/>
<circle cx="914" cy="392" r="4" fill="#2563eb"/>
<circle cx="916" cy="343" r="4" fill="#2563eb"/>
<circle cx="922" cy="318" r="4" fill="#2563eb"/>
<circle cx="924" cy="392" r="4" fill="#2563eb"/>
<circle cx="924" cy="343" r="4" fill="#2563eb"/>
<circle cx="926" cy="367" r="4" fill="#2563eb"/>
<circle cx="933" cy="416" r="4" fill="#2563eb"/>
<circle cx="935" cy="416" r="4" fill="#2563eb"/>
<circle cx="935" cy="416" r="4" fill="#2563eb"/>
<circle cx="946" cy="416" r="4" fill="#2563eb"/>
<circle cx="1002" cy="416" r="4" fill="#2563eb"/>
<circle cx="1002" cy="294" r="4" fill="#2563eb"/>
<circle cx="1023" cy="318" r="4" fill="#2563eb"/>
<circle cx="1028" cy="392" r="4" fill="#2563eb"/>
<circle cx="1029" cy="416" r="4" fill="#2563eb"/>
<circle cx="1030" cy="343" r="4" fill="#2563eb"/>
<circle cx="1031" cy="416" r="4" fill="#2563eb"/>
<circle cx="1032" cy="392" r="4" fill="#2563eb"/>
<circle cx="1035" cy="367" r="4" fill="#2563eb"/>
<circle cx="1038" cy="416" r="4" fill="#2563eb"/>
<circle cx="1040" cy="416" r="4" fill="#2563eb"/>
</g>
</svg>